<svg width="24" height="24" viewBox="0 0 24 24" fill="none" xmlns="http://www.w3.org/2000/svg">
<path d="M10.6729 5.76001C11.3562 5.26363 12.3939 5.41048 12.9102 6.06567C13.1227 6.34413 13.1555 6.50375 13.2246 6.66724C13.2847 6.82698 13.3366 6.97546 13.3887 7.12427C13.4707 7.35927 13.5522 7.59515 13.6338 7.83032C13.7048 8.03307 13.7799 8.25892 13.8389 8.39478C13.9811 8.71404 14.1923 9.00193 14.458 9.23267C14.4769 9.24771 14.4967 9.2627 14.5166 9.27759C14.8994 9.57974 15.4895 9.7546 15.8652 9.78345C16.3449 9.83167 16.6792 9.75339 16.9424 9.67114C16.9759 9.65845 17.0097 9.64539 17.043 9.6311C17.1914 9.56699 17.3955 9.4493 17.585 9.34595C17.7001 9.2846 17.7706 9.23708 17.9609 9.15063C18.9319 8.70628 20.1197 9.61342 19.9658 10.636C19.9383 10.8349 19.9095 10.9186 19.8818 11.0452C19.7204 11.7309 19.5611 12.4177 19.4053 13.1047C19.2736 13.6853 19.144 14.2672 19.0176 14.8489C18.9808 15.0182 18.9437 15.1882 18.9072 15.3577C18.828 15.7256 18.751 16.0912 18.6689 16.4612C18.6099 16.7762 18.5511 17.0821 18.4893 17.3645C18.4023 17.7625 18.3045 18.1238 18.1846 18.4221C18.0107 18.8703 17.691 19.3788 17.2607 19.7034C17.0141 19.8965 16.7425 20.0326 16.5029 20.1184C16.3965 20.1569 16.2969 20.1859 16.2041 20.2102C15.6922 20.3621 15.1977 20.409 14.7139 20.4436C14.6811 20.4404 14.6494 20.4375 14.6162 20.4338C14.2032 20.3874 13.7052 20.3936 12.9307 20.3948C12.8442 20.3949 12.758 20.3947 12.6641 20.3948C12.3909 20.3949 12.0853 20.3953 11.7412 20.3918C11.4448 20.3888 11.2924 20.3629 11.168 20.342C11.1314 20.3359 11.0972 20.3301 11.0625 20.3254C10.9434 20.3096 10.8172 20.3267 10.6689 20.3469C10.5698 20.3604 10.4604 20.3757 10.3359 20.3831C10.2174 20.39 10.0877 20.3901 9.94043 20.3762C8.96649 20.2853 8.53216 20.3326 8.19531 20.3606C8.097 20.3687 8.00713 20.3749 7.91406 20.3743C7.61597 20.3738 7.18124 20.2972 6.85742 20.175C6.6175 20.0929 6.11932 19.9231 5.77051 19.6643C5.75022 19.65 5.73026 19.6356 5.71094 19.6213C5.57711 19.5228 5.41227 19.3602 5.25879 19.1477C5.09873 18.9281 4.9553 18.6595 4.8252 18.3762C4.50931 17.6576 4.42479 17.2767 4.33105 16.9749C4.30592 16.8874 4.28345 16.8093 4.26074 16.7278C4.19004 16.4749 4.11072 16.161 4.03223 15.844C3.9949 15.6934 3.95761 15.5423 3.9209 15.3948C3.866 15.1744 3.81347 14.9658 3.7666 14.7913C3.61632 14.0277 3.47 13.2626 3.32324 12.4983C3.24803 12.106 3.21993 11.7195 3.24902 11.4241C3.2783 11.1287 3.36182 10.9475 3.48242 10.9211C3.60301 10.8953 3.75322 11.0252 3.90234 11.2815C4.05157 11.5383 4.18774 11.9019 4.28223 12.2903C4.47236 13.0727 4.66238 13.8556 4.84863 14.6389C4.89036 14.8144 4.93137 14.9907 4.97266 15.1663C5.15776 15.9439 5.3273 16.729 5.54492 17.4543C5.73135 18.0674 5.96458 18.6062 6.36523 18.926C6.37132 18.931 6.37767 18.9368 6.38379 18.9417C6.42616 18.9756 6.47049 19.0067 6.51562 19.0364C6.89682 19.2507 7.40057 19.3071 7.77246 19.3381C8.07948 19.3628 8.31491 19.3884 8.51562 19.4104C8.65337 19.4251 8.7797 19.4376 8.9043 19.4387C8.97313 19.4394 9.06452 19.4387 9.17773 19.4377C9.46551 19.4355 9.88311 19.4281 10.3359 19.4299C10.6022 19.4311 10.8791 19.4355 11.1465 19.4465C11.4661 19.4597 11.8379 19.4862 12.1924 19.511C12.3552 19.5224 12.5149 19.5327 12.6641 19.5422C12.9797 19.5624 13.2479 19.5752 13.4102 19.5676C13.8269 19.548 14.302 19.5585 14.7139 19.55C15.1071 19.5433 15.4404 19.5132 15.6182 19.4592C15.8284 19.3949 16.0078 19.3644 16.25 19.2805C16.3869 19.2311 16.5432 19.1626 16.7178 19.0305C16.7557 19.0017 16.7947 18.9698 16.833 18.9348C17.0793 18.7065 17.2162 18.4917 17.3291 18.3C17.4832 18.0276 17.5813 17.7951 17.6611 17.4299C17.7482 17.0232 17.8305 16.5855 17.918 16.2473C17.958 16.0922 17.9963 15.9128 18.0361 15.7258C18.0738 15.5493 18.1114 15.3705 18.1533 15.1936C18.1705 15.1212 18.1886 15.0497 18.207 14.9807C18.2588 14.7864 18.3182 14.6286 18.3701 14.4895C18.3862 14.4464 18.4016 14.4047 18.416 14.3645C18.4497 14.2082 18.4833 14.0512 18.5166 13.8948C18.5183 13.8687 18.5198 13.8404 18.5215 13.8118C18.5302 13.6677 18.5414 13.4904 18.5742 13.2756C18.6263 12.9353 18.7037 12.643 18.7852 12.3352C18.8486 12.0955 18.9139 11.8455 18.9727 11.5559C19.0127 11.3585 19.052 11.1317 19.0908 10.9075C19.0927 10.8966 19.0948 10.8851 19.0967 10.8743C19.1162 10.7591 19.1445 10.609 19.1455 10.5618C19.1503 10.4411 19.1232 10.3406 19.0947 10.2629C19.077 10.2147 19.0664 10.1679 19.0498 10.1213H19.0488C19.0477 10.1183 19.047 10.1146 19.0459 10.1116C18.8628 9.8914 18.5451 9.82146 18.2998 9.9436C18.255 9.96661 18.1248 10.0469 18.0273 10.1067C18.0222 10.1098 18.0168 10.1134 18.0117 10.1165C17.9715 10.1443 17.9304 10.1725 17.8896 10.2004C17.7407 10.3019 17.5964 10.4037 17.4434 10.4934C17.3953 10.5219 17.3503 10.5475 17.3115 10.5706C17.149 10.6699 16.6904 10.8486 16.1768 10.8879C15.8417 10.9179 15.491 10.8922 15.209 10.843C15.0439 10.8148 14.8949 10.7544 14.749 10.6829C14.6124 10.6157 14.4775 10.5392 14.3271 10.4631C14.252 10.4251 14.1699 10.3849 14.084 10.3381C14.0082 10.2968 13.9284 10.2501 13.8496 10.1956C13.7765 10.1447 13.6238 10.0155 13.4551 9.82642C13.3507 9.70962 13.2407 9.56944 13.1377 9.41528C13.0139 9.24987 12.9045 9.07266 12.8115 8.88794C12.6893 8.63533 12.6217 8.44275 12.5381 8.2356C12.5299 8.21488 12.5218 8.19382 12.5137 8.1731C12.4707 8.09608 12.4278 8.03098 12.3857 7.98267C12.3556 7.94805 12.3246 7.92016 12.293 7.89185C12.25 7.85338 12.2052 7.81354 12.1592 7.75317C12.125 7.70831 12.0965 7.65067 12.0859 7.60669C12.0854 7.60444 12.0845 7.60201 12.084 7.59985C12.0798 7.57896 12.0809 7.562 12.0811 7.54614C12.0813 7.52806 12.0817 7.51157 12.0752 7.49438C12.0705 7.48224 12.0608 7.47194 12.0498 7.45825C12.0322 7.43669 12.0097 7.40745 11.9912 7.35962C11.9359 7.20833 11.8392 6.98042 11.8301 6.95923L11.8057 6.93188C11.773 6.90144 11.7339 6.88271 11.6973 6.8772C11.6419 6.86817 11.5604 6.85358 11.4746 6.89185L11.4717 6.89282C11.4981 6.84417 11.3167 7.03899 11.2256 7.16528C11.1612 7.25002 11.0972 7.34447 11.0352 7.44067C10.9975 7.49903 10.9603 7.55848 10.9238 7.61646C10.8078 7.80079 10.6958 7.97878 10.5811 8.11548C10.5578 8.14284 10.5167 8.16844 10.4658 8.20044C10.4294 8.22332 10.3869 8.25008 10.3428 8.28247C10.2124 8.4677 10.0807 8.65275 9.94922 8.83716C9.94676 8.84507 9.94493 8.8544 9.94238 8.86255C9.88409 9.0491 9.80326 9.30416 9.55762 9.5686C9.49525 9.63568 9.44393 9.67014 9.39746 9.70044C9.35607 9.72743 9.31861 9.75205 9.28125 9.79517C9.27687 9.80041 9.27202 9.80613 9.26758 9.81177C9.21071 9.88415 9.15386 9.9778 9.08594 10.0764C8.99062 10.2152 8.86903 10.3655 8.70996 10.4709C8.69921 10.4781 8.68786 10.4866 8.67578 10.4944C8.56083 10.5696 8.38216 10.6708 8.18945 10.7307C7.67397 11.0088 7.08561 11.1394 6.50879 11.1096C5.83084 11.0772 5.16883 10.8159 4.65723 10.3899C4.56258 10.3068 4.46013 10.2697 4.3418 10.2776C4.14516 10.2903 3.94102 10.4052 3.80859 10.5588C3.67135 10.7119 3.60188 10.8946 3.48242 10.9211C3.37514 10.949 3.16891 10.8031 3.17383 10.386C3.17368 9.97636 3.56604 9.40468 4.20215 9.30591C4.57824 9.239 4.99567 9.35211 5.29004 9.57837C5.55016 9.76466 5.84636 9.88831 6.15332 9.94165C6.17915 9.94466 6.20559 9.94721 6.23145 9.94946C6.42441 9.96611 6.6054 9.93723 6.77344 9.88794C6.81193 9.87662 6.85017 9.86415 6.8877 9.85083C7.17829 9.76748 7.69736 9.54743 7.92578 9.32544C7.92988 9.32187 7.93439 9.3183 7.93848 9.3147C7.99398 9.26572 8.04344 9.21438 8.09668 9.15161C8.12688 9.11585 8.15816 9.07633 8.19238 9.02954C8.34073 8.82447 8.54922 8.54253 8.90625 8.08423C9.03245 7.90254 9.1598 7.72119 9.28711 7.54028C9.49557 7.24408 9.70488 6.9476 9.91504 6.65259C10.0067 6.52419 10.0976 6.3954 10.2002 6.25806C10.3125 6.11948 10.3891 5.9752 10.6729 5.76001Z" fill="#514024"/>
<path d="M19 7.5C19 6.67157 19.6716 6 20.5 6C21.3284 6 22 6.67157 22 7.5C22 8.32843 21.3284 9 20.5 9C19.6716 9 19 8.32843 19 7.5Z" fill="#BB9E5B"/>
<path d="M2 6.5C2 5.67157 2.67157 5 3.5 5C4.32843 5 5 5.67157 5 6.5C5 7.32843 4.32843 8 3.5 8C2.67157 8 2 7.32843 2 6.5Z" fill="#BB9E5B"/>
<path d="M10.5 3.5C10.5 2.67157 11.1716 2 12 2C12.8284 2 13.5 2.67157 13.5 3.5C13.5 4.32843 12.8284 5 12 5C11.1716 5 10.5 4.32843 10.5 3.5Z" fill="#DAC48F"/>
</svg>
