<svg width="24" height="24" viewBox="0 0 24 24" fill="none" xmlns="http://www.w3.org/2000/svg">
<g clip-path="url(#clip0_56_1522)">
<mask id="mask0_56_1522" style="mask-type:alpha" maskUnits="userSpaceOnUse" x="0" y="0" width="24" height="24">
<path d="M0 0H24V24H0V0Z" fill="white"/>
</mask>
<g mask="url(#mask0_56_1522)">
<path d="M19.6675 20.0012C20.2195 20.0015 20.6675 20.4491 20.6675 21.0012C20.6672 21.5531 20.2194 22.001 19.6675 22.0012H4.3335C3.78137 22.0012 3.33376 21.5533 3.3335 21.0012C3.3335 20.4489 3.78121 20.0012 4.3335 20.0012H19.6675ZM11.9995 2.66724C12.5518 2.66724 12.9995 3.11495 12.9995 3.66724V14.51L17.1753 10.3342C17.5658 9.94391 18.1989 9.94382 18.5894 10.3342C18.9798 10.7247 18.9797 11.3578 18.5894 11.7483L12.8384 17.4993C12.3697 17.9679 11.6097 17.9679 11.1411 17.4993L5.39014 11.7483C4.99969 11.3578 4.99964 10.7247 5.39014 10.3342C5.78065 9.9439 6.41373 9.94384 6.8042 10.3342L10.9995 14.5295V3.66724C10.9995 3.11511 11.4474 2.6675 11.9995 2.66724Z" fill="#5D492C"/>
</g>
</g>
<defs>
<clipPath id="clip0_56_1522">
<rect width="24" height="24" fill="white"/>
</clipPath>
</defs>
</svg>
