<svg width="24" height="24" viewBox="0 0 24 24" fill="none" xmlns="http://www.w3.org/2000/svg">
<path d="M12 1.5C17.799 1.5 22.5 6.20101 22.5 12C22.5 17.799 17.799 22.5 12 22.5C6.20101 22.5 1.5 17.799 1.5 12C1.5 6.20101 6.20101 1.5 12 1.5ZM15.1816 8.81836C14.8887 8.52547 14.414 8.52547 14.1211 8.81836L12 10.9395L9.87891 8.81836C9.58601 8.52547 9.11125 8.52547 8.81836 8.81836C8.52547 9.11125 8.52547 9.58601 8.81836 9.87891L10.9395 12L8.81836 14.1211C8.52547 14.414 8.52547 14.8887 8.81836 15.1816C9.11125 15.4745 9.58601 15.4745 9.87891 15.1816L12 13.0605L14.1211 15.1816C14.414 15.4745 14.8887 15.4745 15.1816 15.1816C15.4745 14.8887 15.4745 14.414 15.1816 14.1211L13.0605 12L15.1816 9.87891C15.4745 9.58601 15.4745 9.11125 15.1816 8.81836Z" fill="#5D492C"/>
</svg>
