<svg width="25" height="25" viewBox="0 0 25 25" fill="none" xmlns="http://www.w3.org/2000/svg">
<mask id="mask0_56_1521" style="mask-type:alpha" maskUnits="userSpaceOnUse" x="0" y="0" width="25" height="25">
<path d="M23.5713 0.285889H0.713864C0.398351 0.285889 0.142578 0.541662 0.142578 0.857174V23.7146C0.142578 24.0301 0.398351 24.2859 0.713864 24.2859H23.5713C23.8868 24.2859 24.1426 24.0301 24.1426 23.7146V0.857174C24.1426 0.541662 23.8868 0.285889 23.5713 0.285889Z" fill="white"/>
</mask>
<g mask="url(#mask0_56_1521)">
<path d="M12.8258 4.32178C13.1279 4.32178 13.4211 4.42441 13.6573 4.61286L21.9577 11.2353C22.5513 11.7089 22.6486 12.5741 22.175 13.1677C22.1027 13.2583 22.0192 13.3394 21.9266 13.409L13.6272 19.6509C13.0387 20.0935 12.2028 19.9752 11.7602 19.3867C11.5864 19.1557 11.4924 18.8744 11.4924 18.5853L11.4924 17.0832L10.5493 17.0854L10.1212 17.0892L9.85043 17.0931L9.59052 17.0985L9.34082 17.1056L9.10066 17.1146L8.86937 17.1257L8.64629 17.1391L8.43073 17.1551L8.22204 17.174C8.18779 17.1773 8.1538 17.1808 8.12005 17.1845L7.92039 17.2079C7.88756 17.2121 7.85495 17.2164 7.82254 17.2209L7.63041 17.2494C6.96563 17.3557 6.37764 17.53 5.73712 17.8157L5.55257 17.9003C5.4905 17.9296 5.42785 17.9599 5.36449 17.9913L5.17221 18.0888C5.13978 18.1056 5.10714 18.1227 5.07429 18.1401L4.87446 18.2477L4.66875 18.3625L4.45649 18.4845L4.23702 18.6141L4.00966 18.7515L3.9607 18.7908L3.8643 18.8647L3.69296 18.9911L3.40997 19.194L2.88939 19.5589C2.57758 19.7756 2.14916 19.6985 1.93249 19.3867C1.85303 19.2723 1.81017 19.1366 1.80957 18.9973L1.80987 18.699L1.81211 18.5105L1.81604 18.3413L1.82165 18.1912C1.82272 18.1678 1.82387 18.1452 1.82508 18.1234L1.83321 18.0022C2.22169 13.1712 5.19572 7.48527 11.4922 7.29082L11.4924 5.65511C11.4924 4.91873 12.0894 4.32178 12.8258 4.32178ZM20.5462 12.3021L13.2065 6.44606L13.2062 8.95299L11.5451 9.00429C7.38548 9.13275 4.50649 12.3952 3.71484 16.8008L3.68938 16.9458L3.82529 16.8674L4.0227 16.7556C4.05519 16.7374 4.08749 16.7195 4.1196 16.7018L4.31016 16.5983L4.49687 16.5002C4.5277 16.4843 4.55839 16.4686 4.58896 16.4531L4.77096 16.3629C4.80108 16.3483 4.83109 16.3338 4.86102 16.3196L5.03961 16.2369C5.12847 16.1968 5.21674 16.1584 5.30475 16.1218L5.48051 16.0509C5.77319 15.9365 6.06532 15.8407 6.36885 15.7608L6.55244 15.7146L6.73933 15.6721C6.83369 15.6518 6.92952 15.6327 7.02712 15.6149L7.22478 15.5809L7.42776 15.55C7.46207 15.5451 7.49661 15.5404 7.53142 15.5357L7.74344 15.5093C7.77933 15.5052 7.81549 15.5011 7.85194 15.4972L8.0743 15.4749L8.30425 15.4552C8.34324 15.4521 8.38258 15.4492 8.42226 15.4463L8.6647 15.4302L8.91617 15.4164L9.17724 15.4046L9.4485 15.3948L9.73052 15.3868L10.0239 15.3805L10.3291 15.3757L10.6468 15.3723L11.148 15.3695L11.4919 15.3689L13.2067 15.3684L13.2065 17.8218L20.5462 12.3021Z" fill="#5D492C"/>
</g>
</svg>
