<svg width="24" height="24" viewBox="0 0 24 24" fill="none" xmlns="http://www.w3.org/2000/svg">
<path d="M11.5918 3.90454C12.0457 3.95052 12.4004 4.33398 12.4004 4.80005C12.4004 5.26612 12.0457 5.64958 11.5918 5.69556L11.5 5.70044H11.2002C9.47796 5.70044 8.27649 5.70168 7.37012 5.82349C6.48959 5.94187 6.02255 6.15836 5.69043 6.49048C5.35831 6.82259 5.14182 7.28964 5.02344 8.17017C4.90163 9.07654 4.90039 10.278 4.90039 12.0002V12.5999C4.90039 14.3222 4.9016 15.5235 5.02344 16.4299C5.14178 17.3101 5.35853 17.7766 5.69043 18.1086C6.02255 18.4408 6.48959 18.6573 7.37012 18.7756C8.2765 18.8975 9.47789 18.8997 11.2002 18.8997H12.8887C14.0802 18.8997 14.911 18.899 15.5537 18.8381C16.1828 18.7785 16.5388 18.6679 16.8057 18.5051C17.1725 18.2813 17.4813 17.9725 17.7051 17.6057C17.8678 17.3388 17.9785 16.9828 18.0381 16.3538C18.099 15.711 18.0996 14.8803 18.0996 13.6887C18.0997 13.1917 18.503 12.7883 19 12.7883C19.4969 12.7884 19.8994 13.1918 19.8994 13.6887C19.8994 14.8455 19.9009 15.7764 19.8301 16.5237C19.758 17.2842 19.605 17.9468 19.2412 18.5432C18.8682 19.1545 18.3545 19.6683 17.7432 20.0413C17.1467 20.4051 16.4841 20.5581 15.7236 20.6301C14.9763 20.7009 14.0455 20.6995 12.8887 20.6995H11.2002C9.52858 20.6995 8.18412 20.7016 7.12988 20.5598C6.04983 20.4146 5.14024 20.1043 4.41797 19.3821C3.69573 18.6598 3.38547 17.7502 3.24023 16.6702C3.0985 15.6159 3.09961 14.2715 3.09961 12.5999V12.0002C3.09961 10.3286 3.0985 8.98417 3.24023 7.92993C3.38546 6.84983 3.69568 5.9403 4.41797 5.21802C5.14025 4.49573 6.04978 4.18551 7.12988 4.04028C8.18412 3.89854 9.52858 3.89966 11.2002 3.89966H11.5L11.5918 3.90454ZM19 4.45532C19.4969 4.45549 19.9004 4.85876 19.9004 5.35571V9.24438C19.9003 9.74128 19.4969 10.1446 19 10.1448C18.5031 10.1446 18.1007 9.74128 18.1006 9.24438V7.52856L11.8594 13.7698C11.508 14.1212 10.9374 14.121 10.5859 13.7698C10.2347 13.4184 10.2348 12.8488 10.5859 12.4973L16.8271 6.2561H15.1113C14.6144 6.25602 14.212 5.85266 14.2119 5.35571C14.2119 4.85871 14.6143 4.45541 15.1113 4.45532H19Z" fill="#5D492C"/>
</svg>
