<svg width="24" height="24" viewBox="0 0 24 24" fill="none" xmlns="http://www.w3.org/2000/svg">
<path d="M9.22534 3.42383C9.82312 3.42622 10.4112 3.44576 10.9998 3.46387C11.0169 3.4644 11.0344 3.46528 11.0515 3.46582C11.3617 3.47565 11.6602 3.53082 11.8796 3.62207C12.099 3.71346 12.2224 3.83354 12.2224 3.95703C12.2221 4.08036 12.0987 4.19973 11.8796 4.29102C11.6602 4.38227 11.3617 4.43743 11.0515 4.44727C11.0344 4.44781 11.0169 4.44868 10.9998 4.44922C10.3908 4.46858 9.78421 4.48575 9.18726 4.51465C8.44319 4.55423 7.69135 4.5985 7.07104 4.78711C6.74391 4.88835 6.47345 5.03532 6.25269 5.25293C6.1812 5.32302 6.11728 5.39817 6.05933 5.47852C6.03491 5.51238 6.01128 5.54701 5.98901 5.58301C5.83611 5.89358 5.77107 6.27379 5.73218 6.55371C5.70037 6.78428 5.66674 6.95898 5.63843 7.11035C5.61932 7.21402 5.60344 7.30632 5.59839 7.40332C5.59583 7.45347 5.59362 7.52536 5.59155 7.61035C5.58163 7.95876 5.58561 8.56072 5.55444 9.11719C5.54021 9.3638 5.51379 9.65382 5.48901 9.92773C5.48686 9.9518 5.48528 9.97595 5.48315 10C5.45033 10.3658 5.42195 10.6999 5.4314 10.874C5.44922 11.1995 5.43401 11.5735 5.42065 11.9033C5.40792 12.2178 5.39716 12.493 5.41772 12.6494C5.43336 12.7684 5.43415 12.8762 5.42944 13C5.42675 13.0718 5.42212 13.1483 5.41675 13.2334C5.40653 13.3989 5.39437 13.5995 5.39038 13.873C5.38585 14.1885 5.37054 14.4082 5.35913 14.5986C5.34336 14.8644 5.3325 15.0654 5.37476 15.3584C5.42169 15.6823 5.47026 16.0167 5.49683 16.2744C5.50856 16.3915 5.53149 16.5254 5.56128 16.6582C5.60076 16.8355 5.65388 17.0138 5.70386 17.1709C5.74486 17.3003 5.77308 17.4092 5.80444 17.5049C5.81429 17.5347 5.82487 17.563 5.83569 17.5898C5.89445 17.68 5.95988 17.765 6.03296 17.8438C6.04743 17.8539 6.06352 17.8644 6.07983 17.875C6.08859 17.8807 6.0979 17.8867 6.10718 17.8926C6.18513 17.9414 6.27787 17.9944 6.38647 18.0566C6.5793 18.1661 6.75222 18.2605 6.95483 18.3447C7.11226 18.4094 7.28948 18.4654 7.50073 18.499C7.64628 18.5222 7.81385 18.5361 7.98315 18.5439C8.23462 18.5558 8.48785 18.556 8.66284 18.5732C8.72855 18.5797 8.78447 18.5973 8.8396 18.6143H8.84058C8.84426 18.6154 8.84859 18.617 8.85229 18.6182C9.28387 18.6225 9.71895 18.6131 10.155 18.6016C10.1926 18.5978 10.2336 18.5945 10.2703 18.5908C10.4545 18.573 10.6348 18.5555 10.7537 18.5303C10.8059 18.5189 10.8914 18.5093 10.9998 18.501C11.1503 18.4893 11.3423 18.4796 11.5398 18.4697C11.7611 18.4587 11.9906 18.4478 12.1775 18.4326C12.2866 18.4238 12.3903 18.4391 12.4968 18.4551C12.5962 18.47 12.6988 18.4852 12.8103 18.4814C12.8661 18.4795 12.9267 18.4727 12.991 18.4658C13.0476 18.4598 13.1079 18.4531 13.1707 18.4492C13.229 18.4456 13.3596 18.4541 13.5261 18.4648C13.629 18.4715 13.7463 18.4792 13.8689 18.4854C13.9124 18.4841 13.9562 18.4827 13.9998 18.4814C14.2817 18.4732 14.5624 18.4655 14.8416 18.457C14.9093 18.4432 14.9669 18.4252 15.0134 18.4023C15.0467 18.386 15.0746 18.3657 15.1033 18.3457C15.1425 18.3184 15.1822 18.2903 15.238 18.2676C15.2819 18.2499 15.3335 18.2425 15.3679 18.249C15.3838 18.2522 15.3969 18.2591 15.408 18.2646C15.4206 18.271 15.432 18.2766 15.446 18.2764C15.4561 18.2761 15.4666 18.2704 15.4792 18.2646C15.4999 18.2554 15.5278 18.2443 15.5681 18.2432C15.718 18.2392 15.8911 18.2382 16.0554 18.2363C16.241 18.2343 16.4202 18.2302 16.5603 18.2178C16.718 18.204 16.9405 18.2037 17.156 18.1934C17.3069 18.1863 17.454 18.1738 17.575 18.1533C17.6937 18.1333 17.809 18.0939 17.9119 18.0508C18.0364 17.9988 18.1427 17.9413 18.2371 17.9092C18.2562 17.9029 18.2868 17.9084 18.325 17.9131C18.3524 17.9164 18.3854 17.9192 18.4197 17.918C18.5197 17.8539 18.6115 17.781 18.697 17.6973C18.7046 17.6899 18.7121 17.6823 18.7195 17.6748C18.7208 17.6698 18.7221 17.6634 18.7234 17.6582C18.7543 17.5372 18.7704 17.3953 18.9041 17.2471C18.9382 17.2086 18.9735 17.1877 19.0046 17.1689C19.0351 17.1504 19.0633 17.1315 19.0818 17.0957C19.1029 17.0543 19.1098 16.9973 19.116 16.9346C19.1244 16.8475 19.1301 16.7478 19.1716 16.6543C19.1744 16.648 19.1773 16.6409 19.1804 16.6338C19.2104 16.5643 19.2522 16.4599 19.3113 16.3516C19.375 16.0163 19.4152 15.6584 19.446 15.2959C19.4966 14.6887 19.5243 14.0675 19.5525 13.4434C19.5594 13.2896 19.5775 13.1412 19.6052 13C19.6324 12.8639 19.6686 12.7382 19.7136 12.6318C19.8046 12.4174 19.9219 12.2964 20.0427 12.2959C20.1638 12.2959 20.2817 12.417 20.3728 12.6318C20.4178 12.7382 20.454 12.8639 20.4812 13C20.5089 13.1412 20.5273 13.2899 20.5339 13.4443C20.5547 13.9412 20.5747 14.4415 20.5808 14.9482C20.5826 14.9749 20.5842 15.0019 20.5857 15.0283C20.5966 15.2274 20.6235 15.4126 20.6462 15.6035C20.6515 15.6469 20.6563 15.6905 20.6609 15.7354C20.7 16.067 20.6 16.7312 20.4783 17.1133C20.4762 17.1202 20.4745 17.1279 20.4724 17.1348C20.4452 17.2242 20.4184 17.3098 20.3826 17.4121C20.2887 17.6414 20.1941 18.0307 19.6355 18.5781C19.6262 18.5878 19.6166 18.5979 19.6072 18.6074C19.4601 18.7565 19.2931 18.8917 19.116 19.0049C17.2212 19.9877 15.6144 19.5709 13.9998 19.6055C13.7541 19.5982 13.5081 19.5907 13.2625 19.583C13.2391 19.5833 13.2142 19.5837 13.1902 19.584C12.7245 19.59 12.1466 19.5974 11.7839 19.5762C11.4604 19.5573 11.2094 19.5389 10.9998 19.5225C10.9094 19.5155 10.8273 19.5084 10.7517 19.502C9.27824 19.4027 7.76983 19.5994 6.20288 18.8545C5.98431 18.7325 5.77895 18.5767 5.60229 18.3975C5.39849 18.1924 5.22754 17.9495 5.10132 17.6943C4.88232 17.2514 4.78411 16.7922 4.71948 16.3486C4.67217 16.0916 4.63726 15.8483 4.60913 15.624C4.57003 15.31 4.54492 15.0318 4.53394 14.8027C4.50784 14.2507 4.52995 13.6291 4.54565 13.1719C4.54773 13.1123 4.5497 13.0548 4.55151 13C4.55197 12.9865 4.55206 12.9731 4.55249 12.96C4.54457 12.5961 4.53675 12.2321 4.52808 11.8682C4.5329 11.8439 4.53757 11.8188 4.54272 11.7939C4.60706 11.4833 4.60642 11.1011 4.60522 10.5C4.60492 10.3481 4.60453 10.1823 4.60522 10C4.60573 9.86578 4.60705 9.72747 4.60913 9.57617C4.61235 9.34584 4.63774 9.22792 4.65894 9.12988C4.66515 9.10149 4.6708 9.07452 4.67554 9.04785C4.69171 8.95615 4.67608 8.85704 4.65698 8.74219C4.63225 8.59035 4.6025 8.41137 4.63647 8.1709C4.74577 7.40973 4.719 7.06647 4.7019 6.79883C4.69743 6.71931 4.69421 6.64931 4.698 6.5752C4.70838 6.33939 4.79741 6.00191 4.90991 5.75781C4.99303 5.56379 5.1401 5.15308 5.32983 4.86133C5.38316 4.77558 5.46439 4.67491 5.56909 4.56934C5.59924 4.53893 5.63088 4.5074 5.66479 4.47656C5.82277 4.33226 6.02694 4.18508 6.25464 4.05566C6.83822 3.74091 7.1699 3.69848 7.42163 3.63477C7.49581 3.61883 7.56106 3.60554 7.62964 3.59277C7.84164 3.55291 8.10261 3.51931 8.36304 3.49414C8.67469 3.46371 8.98861 3.44345 9.22534 3.42383ZM18.824 3.45605C18.844 3.46013 18.864 3.4644 18.8796 3.46094C18.8971 3.45733 18.9222 3.47412 18.947 3.49121C18.9643 3.50311 18.9819 3.51555 18.9968 3.52051C19.0114 3.52512 19.0271 3.51605 19.0417 3.50684C19.0596 3.49562 19.077 3.48482 19.0916 3.5C19.0945 3.50405 19.0988 3.52231 19.1033 3.54492C19.1065 3.56133 19.1098 3.58037 19.114 3.59766C19.1325 3.59766 19.1512 3.59917 19.1697 3.60059C19.1703 3.59818 19.171 3.59528 19.1716 3.59277C19.1869 3.53307 19.2078 3.45128 19.2371 3.5C19.2444 3.51247 19.2495 3.5353 19.2537 3.55566C19.2577 3.57535 19.2611 3.59343 19.2664 3.59766C19.2724 3.60149 19.2801 3.58938 19.2878 3.57617C19.299 3.55726 19.3115 3.53616 19.324 3.55566C19.3248 3.55684 19.3261 3.55829 19.3269 3.55957C19.336 3.5736 19.3498 3.5952 19.363 3.63672C19.4023 3.64781 19.4419 3.66065 19.4812 3.6748C19.5471 3.69854 19.6136 3.72589 19.6794 3.75293C19.7113 3.76658 19.7418 3.8235 19.7644 3.91406C19.7844 3.99473 19.7951 4.09605 19.7976 4.20215C19.9061 4.20468 20.0094 4.21581 20.0906 4.23633C20.1816 4.25941 20.2378 4.29062 20.2478 4.32324C20.2674 4.38907 20.2869 4.45565 20.3025 4.52148C20.3215 4.60165 20.3347 4.68253 20.3347 4.7627C20.3347 4.81861 20.3312 4.87475 20.3259 4.93066C20.3254 4.93638 20.3255 4.94254 20.325 4.94824C20.3551 4.99506 20.3824 5.04215 20.3923 5.0752C20.4002 5.1022 20.3846 5.1227 20.3708 5.13965C20.3613 5.15139 20.3529 5.16233 20.3542 5.17285C20.355 5.17841 20.356 5.18632 20.3582 5.19531C20.3674 5.2334 20.3838 5.29859 20.3542 5.35742C20.3411 5.38357 20.3145 5.41438 20.2898 5.44336C20.2545 5.48474 20.2211 5.52348 20.2312 5.54297C20.2488 5.57721 20.2338 5.6167 20.2205 5.65137C20.2078 5.68421 20.1974 5.71304 20.2175 5.72949C20.2417 5.74905 20.2322 5.76627 20.2175 5.79102C20.2072 5.80834 20.1943 5.83052 20.1892 5.85938C20.1833 5.89213 20.1666 5.91571 20.1521 5.93555C20.1315 5.96376 20.1158 5.98592 20.1443 6.01758C20.1757 6.05259 20.1962 6.08935 20.1863 6.11816C20.1818 6.13131 20.1822 6.14648 20.1833 6.16211C20.1849 6.18277 20.1868 6.20477 20.1755 6.22461C20.1661 6.24098 20.142 6.25461 20.1208 6.2666C20.1143 6.27033 20.1078 6.27388 20.1023 6.27734C20.1026 6.29038 20.1035 6.30436 20.1042 6.31738C20.1078 6.3193 20.112 6.32115 20.116 6.32324C20.138 6.33489 20.1659 6.3495 20.1794 6.36719C20.2006 6.39524 20.1868 6.4203 20.1726 6.44629C20.1616 6.46643 20.1501 6.48773 20.1541 6.51172C20.1569 6.52816 20.1669 6.54788 20.1765 6.56641C20.1908 6.59386 20.2049 6.62079 20.196 6.63965C20.1925 6.6467 20.1777 6.65317 20.1628 6.65918L20.1599 6.66016C20.1713 6.70618 20.1838 6.7528 20.197 6.79883C20.2008 6.80279 20.205 6.80758 20.2087 6.81152C20.227 6.83096 20.2451 6.84999 20.2703 6.8623C20.2975 6.87589 20.3141 6.90982 20.3308 6.94531C20.3418 6.9685 20.3528 6.99314 20.3679 7.0127C20.372 7.0183 20.3706 7.02385 20.366 7.0293L20.325 7.0625C20.3199 7.06788 20.3172 7.07333 20.3191 7.0791C20.3211 7.08493 20.327 7.09195 20.3337 7.09863C20.3397 7.10453 20.3465 7.11066 20.3503 7.11719C20.3536 7.12344 20.3453 7.13701 20.3347 7.1543C20.3281 7.1651 20.3204 7.17756 20.3142 7.19043C20.3239 7.22459 20.3339 7.25979 20.3425 7.29395C20.356 7.30093 20.374 7.3067 20.3962 7.31152C20.4124 7.31502 20.4322 7.31823 20.4519 7.32129C20.4788 7.32546 20.5069 7.33 20.5291 7.33594C20.5462 7.34058 20.5528 7.34594 20.5457 7.34961C20.5423 7.35121 20.5364 7.35238 20.531 7.35352C20.5244 7.35489 20.5181 7.3569 20.5183 7.3584C20.5195 7.3593 20.5242 7.36014 20.5291 7.36133C20.538 7.36353 20.5491 7.3668 20.5496 7.37109C20.551 7.38727 20.5474 7.40584 20.5437 7.42383C20.5396 7.4439 20.5363 7.46386 20.5398 7.47949C20.5434 7.49701 20.5256 7.52202 20.5085 7.54688C20.4965 7.56434 20.4851 7.58265 20.4802 7.59766C20.4757 7.61225 20.4846 7.62787 20.4939 7.64258C20.5049 7.66014 20.5155 7.67702 20.5007 7.69141C20.4976 7.69433 20.479 7.69859 20.4558 7.70312C20.4392 7.70637 20.4196 7.70961 20.4021 7.71387C20.4021 7.73224 20.4016 7.75116 20.4001 7.76953C20.4026 7.77016 20.4054 7.77083 20.408 7.77148L20.4949 7.79883C20.5166 7.80958 20.5248 7.82232 20.5007 7.83691C20.4884 7.84431 20.4656 7.84931 20.4451 7.85352C20.4249 7.85766 20.4069 7.86176 20.4031 7.86719C20.399 7.87333 20.4111 7.88079 20.4246 7.88867C20.4433 7.89971 20.4645 7.91247 20.4451 7.9248C20.4437 7.92566 20.4417 7.9258 20.4402 7.92676C20.4262 7.93579 20.4056 7.94958 20.364 7.96289C20.3529 8.00229 20.3391 8.04165 20.325 8.08105C20.3012 8.1469 20.2748 8.21346 20.2478 8.2793C20.2344 8.31127 20.1773 8.3426 20.0867 8.36523C19.9955 8.3879 19.8777 8.40038 19.7566 8.40039C19.6357 8.40038 19.5185 8.38783 19.4275 8.36523C19.3368 8.34265 19.28 8.31123 19.2664 8.2793C19.2449 8.22709 19.2227 8.17429 19.2029 8.12207C19.2006 8.11955 19.1982 8.11678 19.196 8.11426C19.1791 8.09393 19.1451 8.07454 19.1111 8.05566C19.1034 8.0514 19.0952 8.04725 19.0876 8.04297C19.0297 8.0098 19.0531 7.94542 19.0662 7.91016L19.0671 7.9082C19.0701 7.9 19.0712 7.89189 19.072 7.88281C19.0741 7.86076 19.0762 7.83061 19.113 7.76855C19.1117 7.75052 19.1111 7.73191 19.1111 7.71387C19.1111 7.51828 19.1598 7.32254 19.2175 7.12695C19.2172 7.12456 19.2169 7.12161 19.2166 7.11914C19.2106 7.0701 19.2033 7.00895 19.2244 6.9707C19.2512 6.92235 19.2761 6.88935 19.2976 6.8623C19.3441 6.70686 19.3859 6.55095 19.4031 6.39551C19.4084 6.34688 19.4119 6.29766 19.4119 6.24902C19.4119 6.20434 19.4095 6.15894 19.406 6.11426C19.3935 6.08853 19.3787 6.06375 19.365 6.04102C19.3456 6.00892 19.3278 5.97975 19.322 5.95605C19.3084 5.89891 19.3295 5.83343 19.3455 5.78516C19.348 5.77735 19.3511 5.76953 19.3533 5.7627C19.3489 5.74159 19.3433 5.72033 19.3386 5.69922C19.3374 5.70021 19.336 5.70116 19.3347 5.70215C19.3159 5.7166 19.3 5.73223 19.281 5.75C19.2353 5.79272 19.173 5.8508 19.0222 5.94922C18.987 5.98636 18.951 6.02339 18.9148 6.05957C18.5234 6.45097 18.0981 6.80863 17.6658 7.15918C17.6611 7.16429 17.6559 7.16955 17.6511 7.1748C17.5572 7.27725 17.4399 7.40429 17.3484 7.46582C17.2322 7.54392 17.1483 7.59286 17.0789 7.63184C16.7351 7.90982 16.395 8.19152 16.072 8.49023C15.9708 8.58387 15.8706 8.67893 15.7732 8.77637C15.6834 8.86612 15.5949 8.9576 15.5076 9.0498C15.4643 9.11094 15.4256 9.17168 15.3894 9.22754C15.3385 9.30605 15.2924 9.37614 15.2488 9.42773C15.1437 9.55196 14.9982 9.66671 14.8904 9.75195C14.8728 9.76586 14.8558 9.77877 14.8406 9.79102C14.7695 9.87325 14.6992 9.9563 14.6287 10.0391C14.6202 10.0408 14.6111 10.0424 14.6023 10.0439C14.4913 10.0639 14.4109 10.1458 14.2849 10.2734C14.2302 10.3288 14.1669 10.3931 14.0886 10.4648C14.0381 10.5111 13.9948 10.5188 13.9597 10.5244C13.9494 10.5261 13.9394 10.5279 13.9304 10.5303C13.8999 10.5387 13.8915 10.5709 13.8816 10.6094C13.8687 10.6594 13.8528 10.7192 13.783 10.749C13.5597 10.8439 13.5335 10.958 13.5134 11.0439C13.5075 11.0691 13.5015 11.0921 13.4919 11.1113C13.4608 11.1736 13.379 11.2249 13.3074 11.2539C13.2505 11.2769 13.1865 11.374 13.1472 11.4561C13.1323 11.4868 13.1022 11.5183 13.0662 11.5547C13.0286 11.5927 12.9847 11.6366 12.947 11.6924C12.8519 11.8333 12.8001 11.9074 12.7585 11.9668C12.7467 11.9837 12.7353 11.9998 12.7244 12.0156C12.6897 12.0655 12.6432 12.1242 12.5964 12.1836C12.5404 12.2548 12.483 12.3273 12.4441 12.3867C12.3059 12.5032 12.1648 12.6175 12.0242 12.7314C11.9518 12.7896 11.8496 12.8131 11.739 12.7949C11.6283 12.7765 11.5177 12.718 11.4304 12.6309C11.3433 12.5436 11.2857 12.433 11.2673 12.3223C11.2491 12.2115 11.2724 12.1095 11.3308 12.0371C11.4487 11.8915 11.5665 11.7454 11.6873 11.6025C11.8343 11.4286 11.9858 11.2591 12.1462 11.0986C12.2586 10.9863 12.3729 10.8752 12.489 10.7666C12.5009 10.7554 12.5132 10.7445 12.5251 10.7334C12.598 10.6176 12.6728 10.504 12.7322 10.4307C12.7812 10.3702 12.8327 10.3418 12.8767 10.3174C12.9069 10.3007 12.9338 10.2855 12.9539 10.2637C12.9646 10.2519 12.9789 10.2349 12.9958 10.2148C13.0655 10.1322 13.184 9.99154 13.323 9.89453C13.3847 9.8515 13.4642 9.80909 13.5398 9.76855C13.6475 9.71077 13.7479 9.6565 13.78 9.61035C13.8361 9.52912 13.9256 9.46049 14.0046 9.40039C14.0796 9.34339 14.145 9.2934 14.1638 9.24609C14.1859 9.18927 14.2274 9.16254 14.2878 9.12305C14.3297 9.09571 14.3809 9.06187 14.4421 9.00781C14.513 8.94524 14.5723 8.90965 14.6228 8.87988C14.6938 8.83798 14.7476 8.80609 14.7908 8.72266C14.8387 8.62996 14.8987 8.54203 14.9636 8.49121C14.993 8.46815 15.0221 8.43726 15.0525 8.40527C15.093 8.3626 15.1364 8.31803 15.1843 8.28613C15.2237 8.25997 15.2674 8.24928 15.3064 8.24023C15.3186 8.23741 15.3307 8.23449 15.3416 8.23145C15.3675 8.20507 15.393 8.17803 15.4187 8.15137L15.4382 8.06543C15.4448 8.04309 15.4537 8.01947 15.4666 7.99707C15.5077 7.92582 15.5666 7.88574 15.6287 7.84375C15.6771 7.81102 15.7277 7.77688 15.7732 7.72559C15.8041 7.69071 15.8347 7.64646 15.865 7.60254C15.9101 7.53703 15.9554 7.47201 15.9998 7.44043C16.0163 7.42888 16.0388 7.42727 16.0613 7.42578C16.0627 7.42571 16.0648 7.42588 16.0662 7.42578C16.1504 7.32538 16.2342 7.22378 16.3171 7.12207C16.3224 7.11145 16.3284 7.10041 16.3337 7.08984C16.3599 7.03775 16.3854 6.98606 16.3923 6.94336C16.4001 6.897 16.4562 6.81826 16.5154 6.73535C16.5542 6.68093 16.5942 6.62435 16.6228 6.57422C16.6396 6.54489 16.673 6.53364 16.7068 6.52246C16.738 6.51213 16.77 6.50142 16.7908 6.47559C16.8012 6.46248 16.8104 6.44516 16.8191 6.42676C16.8268 6.41058 16.8341 6.39292 16.8445 6.37695C16.8542 6.36211 16.8878 6.34092 16.9304 6.31348C16.9568 6.29645 16.9871 6.27642 17.0173 6.25488C17.0789 6.17965 17.1415 6.10477 17.2039 6.03027C17.2085 6.0066 17.208 5.98163 17.2019 5.95605C17.1975 5.93762 17.1892 5.91756 17.1814 5.89746C17.1707 5.87005 17.1598 5.8411 17.156 5.81348C17.1531 5.79192 17.1592 5.77574 17.1716 5.77344C17.1774 5.77243 17.1847 5.77472 17.1912 5.77637C17.1984 5.77823 17.2049 5.77939 17.2078 5.77637C17.2098 5.77412 17.209 5.76832 17.2078 5.76172C17.2058 5.75109 17.2036 5.73744 17.2117 5.72852C17.2431 5.6949 17.2832 5.66057 17.322 5.62695C17.3652 5.5896 17.4074 5.55235 17.4363 5.51855C17.4688 5.48078 17.5313 5.44312 17.5935 5.40527C17.6369 5.37886 17.6802 5.35172 17.7136 5.3252C17.7464 5.29917 17.7707 5.2618 17.7937 5.22559C17.8213 5.18221 17.8478 5.14054 17.8875 5.12207C17.8956 5.11839 17.9164 5.12443 17.9421 5.13184C17.9604 5.13707 17.9818 5.14263 18.0027 5.14648C18.0396 5.10955 18.0771 5.07304 18.115 5.03711C18.1145 5.03412 18.1145 5.03046 18.114 5.02734C18.1023 4.95478 18.086 4.85542 18.1785 4.83105C18.202 4.82498 18.2278 4.83181 18.2507 4.83789C18.2732 4.84385 18.2939 4.84888 18.3074 4.84082C18.3226 4.83162 18.3285 4.80835 18.3347 4.7832C18.3368 4.77465 18.3399 4.76542 18.3425 4.75684C18.3095 4.73654 18.2836 4.71898 18.2625 4.70215C18.107 4.65565 17.9511 4.61486 17.7957 4.59766C17.747 4.59228 17.6979 4.58887 17.6492 4.58887C17.6044 4.58887 17.5592 4.5903 17.5144 4.59375C17.4883 4.60638 17.4632 4.62184 17.4402 4.63574C17.408 4.65518 17.3789 4.67304 17.3552 4.67871C17.298 4.69212 17.2325 4.67025 17.1843 4.6543C17.1768 4.65181 17.1694 4.64952 17.1628 4.64746C17.1246 4.65536 17.0859 4.66323 17.0476 4.67188C17.0451 4.66721 17.0423 4.6622 17.0398 4.65723C17.0071 4.59291 16.9664 4.59353 16.9031 4.59473C16.8757 4.59524 16.8437 4.59635 16.8064 4.5918C16.7822 4.58881 16.7687 4.56277 16.7585 4.54199C16.7557 4.53608 16.7535 4.52993 16.7507 4.52539C16.741 4.5096 16.7306 4.52675 16.7185 4.54688C16.7028 4.573 16.6837 4.60405 16.6589 4.57617C16.5794 4.48541 16.5438 4.54717 16.5173 4.59375C16.5096 4.60731 16.503 4.62012 16.4958 4.62695C16.4726 4.649 16.439 4.62665 16.4138 4.59668C16.3938 4.57271 16.3533 4.59672 16.323 4.62695C16.3116 4.63802 16.296 4.6384 16.2781 4.63867C16.2592 4.63895 16.237 4.63953 16.2136 4.65234C16.1549 4.68455 16.1236 4.70036 16.0984 4.71289C16.0914 4.71639 16.0844 4.71934 16.0779 4.72266C16.0568 4.73335 16.0301 4.74209 16.0037 4.75098C15.972 4.76164 15.9393 4.77269 15.9148 4.78711C15.8512 4.77178 15.787 4.7533 15.7234 4.73438C15.6908 4.72449 15.6596 4.66893 15.6365 4.57812C15.6134 4.48679 15.6004 4.36659 15.6003 4.24316C15.6004 4.11989 15.6134 4.00045 15.6365 3.90918C15.6596 3.81821 15.6908 3.76287 15.7234 3.75293C15.7893 3.73333 15.8557 3.71386 15.9216 3.69824C16.0017 3.67929 16.0818 3.66605 16.1619 3.66602C16.218 3.66602 16.2747 3.66854 16.3308 3.67383C16.3365 3.67437 16.3427 3.67519 16.3484 3.67578C16.3953 3.64554 16.4422 3.61833 16.4753 3.6084C16.5026 3.60034 16.5227 3.61605 16.5398 3.62988C16.5515 3.63936 16.5625 3.64782 16.573 3.64648C16.5786 3.64573 16.5863 3.64381 16.5955 3.6416C16.6335 3.6324 16.6986 3.61683 16.7576 3.64648C16.7836 3.65972 16.8137 3.68629 16.8425 3.71094C16.884 3.7463 16.9236 3.77868 16.9431 3.76855C16.9773 3.75112 17.0169 3.766 17.0515 3.7793C17.0844 3.79194 17.1132 3.80259 17.1296 3.78223C17.1493 3.75792 17.1662 3.76841 17.1912 3.7832C17.2084 3.79343 17.2299 3.80547 17.2585 3.81055C17.2917 3.81641 17.3157 3.83403 17.3357 3.84863C17.3637 3.8691 17.3853 3.88447 17.4167 3.85645C17.4519 3.82476 17.4893 3.80444 17.5183 3.81445C17.5314 3.81883 17.5467 3.81756 17.5623 3.81641C17.5829 3.81488 17.6049 3.81389 17.6248 3.8252C17.641 3.83472 17.6548 3.85883 17.6667 3.87988C17.6704 3.88632 17.6741 3.89303 17.6775 3.89844C17.6904 3.89813 17.7036 3.89718 17.7166 3.89648C17.7187 3.89266 17.7211 3.88816 17.7234 3.88379C17.735 3.86173 17.7496 3.83485 17.7673 3.82129C17.7955 3.7999 17.8204 3.81293 17.8464 3.82715C17.8666 3.83818 17.8878 3.8498 17.9119 3.8457C17.9283 3.84286 17.947 3.83291 17.9656 3.82324C17.9932 3.80886 18.0208 3.79482 18.0398 3.80371C18.0468 3.80731 18.0533 3.82307 18.0593 3.83789L18.0603 3.84082C18.1065 3.82935 18.1528 3.81605 18.199 3.80273C18.2028 3.79905 18.2069 3.79557 18.2107 3.79199C18.2302 3.77368 18.25 3.75568 18.2625 3.73047C18.2759 3.70302 18.3098 3.68675 18.3455 3.66992C18.3687 3.65895 18.3932 3.64796 18.4128 3.63281C18.4243 3.62407 18.4348 3.63932 18.446 3.65527C18.4564 3.67007 18.4676 3.68539 18.4792 3.68164C18.4851 3.67969 18.4911 3.67279 18.4978 3.66602C18.5038 3.65997 18.5107 3.65334 18.5173 3.64941C18.5236 3.64636 18.5373 3.65458 18.5544 3.66504C18.5652 3.67162 18.5778 3.67943 18.5906 3.68555C18.6247 3.67591 18.659 3.66679 18.6931 3.6582C18.7002 3.64468 18.7068 3.62696 18.7117 3.60449C18.7152 3.58832 18.7184 3.56859 18.7214 3.54883C18.7256 3.52193 18.7302 3.49391 18.7361 3.47168C18.7407 3.45436 18.7461 3.44706 18.7498 3.4541C18.7514 3.45752 18.7525 3.46415 18.7537 3.46973C18.7549 3.47581 18.7562 3.48191 18.7576 3.48242C18.7586 3.48209 18.7601 3.47708 18.7615 3.47168C18.7637 3.46267 18.7669 3.45061 18.7712 3.4502C18.7874 3.44875 18.806 3.45241 18.824 3.45605Z" fill="#514024"/>
</svg>
