<svg width="24" height="24" viewBox="0 0 24 24" fill="none" xmlns="http://www.w3.org/2000/svg">
<path d="M15.6873 3.83643C16.1386 3.80191 17.0608 3.93315 17.5984 4.18115C17.608 4.18523 17.6181 4.18871 17.6277 4.19287C17.7537 4.24837 17.8718 4.30533 18.0085 4.38428C18.1814 4.48582 18.3897 4.6229 18.6296 4.87061C18.8336 5.08199 19.0722 5.39772 19.2419 5.8374C19.36 6.10834 19.4364 6.37858 19.4919 6.64209C19.748 8.02531 19.6616 9.25072 19.6589 10.5005C19.6395 11.8008 19.6123 13.1015 19.5828 14.4019C19.5831 14.4337 19.5834 14.4668 19.5837 14.4995V14.5005C19.59 15.1378 19.5964 15.9348 19.5603 16.4419C19.5158 17.0861 19.4553 17.5341 19.3816 17.9048C19.2732 18.5883 19.0376 19.3878 18.446 19.9468C17.1296 21.1027 15.5731 20.8293 14.2429 20.894C13.8283 20.8943 13.4138 20.8914 12.9998 20.8901C12.7798 20.8894 12.5595 20.8892 12.3396 20.8892C11.8931 20.8892 11.4463 20.89 10.9998 20.8921C10.8612 20.8927 10.7273 20.8933 10.5896 20.894C10.2498 20.9064 9.92566 20.9208 9.62378 20.9312C9.20113 20.9459 8.81763 20.9527 8.49976 20.9409C7.73968 20.914 6.8109 20.7883 6.15503 20.394C6.04987 20.3324 5.95307 20.2662 5.86792 20.2007C5.75842 20.1222 5.65463 20.0356 5.55835 19.9419C5.22311 19.6206 4.98357 19.1977 4.84351 18.7817C4.83613 18.7437 4.82996 18.7068 4.82397 18.6685C4.75132 18.1915 4.67145 17.6452 4.63354 16.8042C4.61712 16.4393 4.60829 16.0181 4.61011 15.5259C4.61141 15.2111 4.63734 15.0457 4.65796 14.9155C4.66403 14.8768 4.66996 14.8395 4.67456 14.8022C4.68627 14.7073 4.68011 14.6113 4.66772 14.5005C4.66348 14.4633 4.65822 14.4244 4.65308 14.3843C4.62684 14.1798 4.59538 13.9338 4.62378 13.6099C4.71451 12.5771 4.65278 12.1212 4.6062 11.7769C4.59257 11.6761 4.57986 11.5843 4.573 11.4907C4.55242 11.2093 4.56976 10.8168 4.59644 10.5005C4.59855 10.475 4.60105 10.4495 4.60327 10.4253C4.62725 10.1663 4.6033 9.64537 4.5769 9.24951C4.56695 9.09777 4.56851 8.89771 4.57397 8.65576C4.57981 8.40621 4.58899 8.11843 4.59741 7.80322C4.61938 7.00861 4.70442 6.55666 4.80933 6.19385C4.8398 6.09046 4.87277 5.99363 4.91089 5.89697C5.01887 5.61761 5.21519 5.27346 5.48999 4.99072C5.51313 4.96659 5.53728 4.94274 5.56128 4.91943C5.93029 4.55326 6.41745 4.32541 6.76538 4.2085C7.69686 3.95834 8.54771 3.97952 9.38745 3.9751C9.81838 3.97772 10.229 4.03269 10.53 4.12354C10.832 4.21465 10.9985 4.33411 10.9998 4.45752C10.9978 4.58075 10.8306 4.70005 10.53 4.7915C10.2302 4.88316 9.82324 4.9387 9.40405 4.95557C8.56618 4.99396 7.70417 5.03401 7.01147 5.27295C6.70432 5.38149 6.45186 5.5343 6.24683 5.74756C5.89094 6.10651 5.72843 6.63382 5.64429 7.2417C5.55295 7.91152 5.54065 8.63475 5.52808 9.35596C5.52697 9.42956 5.52608 9.5067 5.52515 9.57959C5.53938 9.89368 5.55501 10.2089 5.56714 10.5005C5.57855 10.7735 5.58678 11.0252 5.59155 11.2339C5.59965 11.5892 5.58394 11.8488 5.57007 12.0708C5.56053 12.2235 5.55212 12.3598 5.55347 12.4966C5.5542 12.57 5.5561 12.6709 5.55835 12.7915C5.566 13.2028 5.57839 13.8529 5.56519 14.5005C5.56251 14.6339 5.55836 14.7618 5.55347 14.8921C5.54059 15.2318 5.51519 15.6231 5.49585 15.9976C5.46699 16.5297 5.45751 17.0234 5.48804 17.2642C5.53887 17.69 5.58935 18.169 5.70581 18.5444C5.81209 18.9035 5.98735 19.1607 6.1228 19.2739C6.14154 19.2899 6.16007 19.3062 6.17847 19.3218C6.3169 19.4369 6.43616 19.5445 6.64136 19.6665C6.80273 19.7606 7.02239 19.8606 7.35913 19.937C7.74897 20.0228 8.04546 20.0627 8.29565 20.0972C8.65144 20.1428 8.92154 20.167 9.33081 20.147C9.78218 20.1238 10.2592 20.1044 10.6345 20.1147C10.749 20.1178 10.8683 20.118 10.9998 20.1177C11.0672 20.1175 11.1368 20.1171 11.2068 20.1167C11.4767 20.1152 11.7611 20.1141 12.0203 20.1255C12.2336 20.1349 12.4101 20.159 12.5662 20.1802C12.6148 20.1868 12.6625 20.1932 12.7078 20.1987C12.805 20.1986 12.9025 20.198 12.9998 20.1978C13.0736 20.1975 13.1467 20.1971 13.2185 20.1968C13.2455 20.1929 13.2749 20.1885 13.3054 20.1841C13.4579 20.1619 13.6431 20.1351 13.8738 20.1206C14.2378 20.0976 14.5547 20.1082 14.8894 20.1138C15.1489 20.1178 15.42 20.1188 15.7234 20.0923C15.9305 20.074 16.1641 20.0416 16.3865 19.9966C16.7191 19.9311 17.0206 19.8305 17.2166 19.7554C17.2906 19.7277 17.3577 19.7114 17.4236 19.6929H17.4246C17.4289 19.6916 17.4339 19.6902 17.4382 19.689C17.5948 19.5982 17.7348 19.4884 17.8582 19.3589C18.0832 19.1242 18.2336 18.8374 18.3308 18.5093C18.3413 18.4648 18.3512 18.4194 18.3601 18.3735C18.4032 18.1511 18.423 17.9199 18.4187 17.7681C18.4159 17.6034 18.4427 17.1901 18.4431 16.7378C18.4445 16.4437 18.4387 16.1345 18.4265 15.8813C18.4194 15.7334 18.4362 15.5929 18.4529 15.4478C18.4685 15.3128 18.4847 15.1742 18.4812 15.02C18.4794 14.9446 18.4724 14.8623 18.4656 14.7729C18.4596 14.6961 18.4529 14.6147 18.449 14.5278C18.4486 14.5199 18.4491 14.5103 18.449 14.5005C18.4478 14.4114 18.4549 14.246 18.4646 14.0405C18.4712 13.8996 18.4789 13.7388 18.4851 13.5708C18.4754 13.1264 18.4664 12.6812 18.4578 12.2368C18.4442 12.1445 18.4266 12.064 18.4041 12.0005C18.3878 11.9549 18.3682 11.9154 18.3484 11.8755C18.3214 11.8211 18.2935 11.7644 18.2712 11.687C18.2539 11.6267 18.2466 11.5553 18.2537 11.5073C18.257 11.4852 18.2636 11.4671 18.2693 11.4517C18.2758 11.4341 18.282 11.418 18.282 11.3989C18.2819 11.385 18.2768 11.3698 18.2712 11.3521C18.2623 11.3234 18.2502 11.2855 18.2498 11.229C18.2482 11.0179 18.2519 10.7775 18.2556 10.5425C18.2558 10.5286 18.2564 10.5143 18.2566 10.5005C18.2604 10.2516 18.2642 10.0164 18.2605 9.82275C18.256 9.5957 18.2718 9.2727 18.2839 8.95264C18.2925 8.72939 18.2983 8.50857 18.2957 8.31885C18.2932 8.13348 18.2742 7.94449 18.2507 7.76416C18.2227 7.54794 18.1885 7.34664 18.1775 7.17822C18.1754 7.14437 18.1871 7.09828 18.2009 7.04346C18.2106 7.00421 18.2209 6.9576 18.2283 6.90771C18.1848 6.7009 18.1295 6.50814 18.0554 6.33545C18.0505 6.33044 18.045 6.32487 18.0398 6.31982L17.8425 6.1333C17.7724 6.06373 17.698 5.98256 17.6248 5.87549C17.6238 5.87416 17.6228 5.87199 17.6218 5.87061C17.5831 5.81497 17.5663 5.77043 17.5496 5.72998C17.5329 5.69019 17.5152 5.65331 17.4753 5.62061C17.4298 5.58363 17.3643 5.55673 17.2908 5.53271C17.1868 5.49855 17.067 5.47039 16.95 5.41064C16.9421 5.40664 16.9335 5.40235 16.9246 5.39795C16.839 5.35527 16.7032 5.29692 16.5603 5.22607C16.1126 5.12588 15.6206 5.08036 15.1208 5.04736C14.4257 5.00337 13.7127 4.98454 12.9998 4.96143C12.8567 4.95692 12.7131 4.95228 12.5701 4.94775C12.1537 4.9344 11.7541 4.87762 11.4597 4.78662C11.166 4.69568 11.0005 4.57837 10.9998 4.45752C10.9998 4.3364 11.1654 4.21858 11.4597 4.12744C11.7541 4.03644 12.1537 3.97966 12.5701 3.96631C12.7131 3.96178 12.8567 3.95715 12.9998 3.95264C13.5384 3.93594 14.0728 3.91815 14.6189 3.91162C14.6545 3.90972 14.6916 3.90827 14.7283 3.90674C14.9978 3.89526 15.2507 3.86938 15.5085 3.84912C15.5686 3.84455 15.6277 3.84014 15.6873 3.83643Z" fill="#514024"/>
<path d="M8.13379 14C8.13379 13.4477 8.5815 13 9.13379 13H15.1338C15.6861 13 16.1338 13.4477 16.1338 14C16.1338 14.5523 15.6861 15 15.1338 15H9.13379C8.5815 15 8.13379 14.5523 8.13379 14Z" fill="#BB9E5B"/>
<path d="M8.13379 10C8.13379 9.44772 8.5815 9 9.13379 9H14.1338C14.6861 9 15.1338 9.44772 15.1338 10C15.1338 10.5523 14.6861 11 14.1338 11H9.13379C8.5815 11 8.13379 10.5523 8.13379 10Z" fill="#DAC48F"/>
</svg>
