<svg width="24" height="24" viewBox="0 0 24 24" fill="none" xmlns="http://www.w3.org/2000/svg">
<path d="M13.1421 2.59961C15.2239 2.59961 16.9619 4.06986 17.3765 6.02832H19.9995L20.0913 6.0332C20.5453 6.07918 20.8999 6.46264 20.8999 6.92871C20.8998 7.39473 20.5452 7.77824 20.0913 7.82422L19.9995 7.8291H19.7573V13.7861C19.7573 15.3767 19.759 16.6605 19.6235 17.668C19.4846 18.7013 19.1868 19.5783 18.4897 20.2754C17.7926 20.9725 16.9156 21.2702 15.8823 21.4092C14.8749 21.5446 13.591 21.543 12.0005 21.543C10.41 21.543 9.12611 21.5446 8.11865 21.4092C7.08543 21.2703 6.20835 20.9723 5.51123 20.2754C4.81409 19.5783 4.51542 18.7013 4.37646 17.668C4.24101 16.6605 4.24268 15.3767 4.24268 13.7861V7.8291H3.99951C3.50269 7.82887 3.09919 7.42557 3.09912 6.92871C3.09912 6.4318 3.50265 6.02855 3.99951 6.02832H6.62256C7.03703 4.0699 8.77525 2.59975 10.8569 2.59961H13.1421ZM6.04346 13.7861C6.04346 15.4274 6.0451 16.5681 6.16064 17.4277C6.27273 18.2613 6.47682 18.695 6.78369 19.002C7.09068 19.3089 7.52428 19.5139 8.35791 19.626C9.21762 19.7415 10.359 19.7432 12.0005 19.7432C13.6417 19.7432 14.7825 19.7415 15.6421 19.626C16.4758 19.5139 16.9093 19.3089 17.2163 19.002C17.5233 18.695 17.7282 18.2615 17.8403 17.4277C17.9559 16.5681 17.9575 15.4274 17.9575 13.7861V7.8291H6.04346V13.7861ZM10.2856 10.5996C10.7827 10.5996 11.186 11.0029 11.186 11.5V16.0713C11.186 16.5683 10.7827 16.9717 10.2856 16.9717C9.78859 16.9717 9.38525 16.5683 9.38525 16.0713V11.5C9.38525 11.0029 9.78859 10.5996 10.2856 10.5996ZM13.7144 10.5996C14.2114 10.5997 14.6147 11.003 14.6147 11.5V16.0713C14.6147 16.5683 14.2114 16.9716 13.7144 16.9717C13.2173 16.9717 12.814 16.5683 12.814 16.0713V11.5C12.814 11.0029 13.2173 10.5996 13.7144 10.5996ZM10.8569 4.40039C9.7782 4.40052 8.86063 5.07721 8.49756 6.02832H15.5034C15.1401 5.07704 14.221 4.40039 13.1421 4.40039H10.8569Z" fill="#5D492C"/>
</svg>
