<svg width="24" height="24" viewBox="0 0 24 24" fill="none" xmlns="http://www.w3.org/2000/svg">
<path d="M12.2568 3.6377C12.4694 3.63088 12.6549 3.66534 12.8457 3.70801C12.9955 3.74162 13.1485 3.78073 13.3271 3.81543C13.4489 3.8391 13.5875 3.86234 13.7256 3.89062C13.9299 3.93202 14.1314 3.98473 14.2627 4.04199C14.3118 4.06334 14.3497 4.09383 14.3867 4.12402H14.3877C14.3902 4.12606 14.393 4.12785 14.3955 4.12988C14.7232 4.24383 15.0447 4.38152 15.3555 4.54004C15.3837 4.55139 15.4124 4.56337 15.4404 4.5752C15.5778 4.63294 15.7097 4.6944 15.8027 4.72461C15.9038 4.7569 16.129 4.88717 16.3555 5.04199C16.504 5.14281 16.6538 5.25305 16.7773 5.34277C16.8497 5.39522 16.9016 5.46495 16.9531 5.53613C17.0012 5.60249 17.0495 5.67085 17.1152 5.73242C17.1482 5.76328 17.1868 5.79398 17.2275 5.82715C17.2635 5.85639 17.3017 5.88777 17.3389 5.92285C17.3734 5.95551 17.4379 6.04017 17.5166 6.15039C17.5653 6.21851 17.6196 6.29694 17.6758 6.37891C17.8448 6.5797 18.0036 6.79009 18.1504 7.00879C18.1909 7.04802 18.2307 7.07971 18.2695 7.10059C18.2974 7.11557 18.3263 7.12607 18.3555 7.13672C18.3953 7.15125 18.4369 7.16632 18.4795 7.19629C18.5128 7.21975 18.5402 7.25505 18.5479 7.28418C18.5513 7.29742 18.5503 7.30949 18.5498 7.32031C18.5492 7.33293 18.549 7.34519 18.5547 7.35547C18.5589 7.36268 18.5673 7.36818 18.5771 7.375C18.5933 7.38613 18.6146 7.40119 18.6309 7.43164C18.6915 7.54486 18.7522 7.67801 18.8076 7.80957C18.8697 7.95637 18.9259 8.1014 18.9736 8.21582C19.0276 8.34437 19.0777 8.53636 19.1191 8.73047C19.1481 8.86517 19.1733 9.00181 19.1973 9.11719C19.2208 9.22986 19.2566 9.34533 19.2891 9.45801C19.3279 9.59218 19.3612 9.72412 19.3633 9.83984C19.3636 9.86308 19.3493 9.89408 19.3311 9.93262C19.3181 9.95998 19.3032 9.99145 19.29 10.0264C19.3083 10.1693 19.3223 10.3126 19.3311 10.4561C19.3339 10.4609 19.3369 10.4667 19.3398 10.4717C19.4073 10.5856 19.4978 10.7459 19.4502 10.9775C19.4486 10.9852 19.4473 10.993 19.4453 11C19.4324 11.0418 19.4124 11.0705 19.3945 11.0967C19.3744 11.1262 19.3564 11.1528 19.3525 11.1914C19.3483 11.2354 19.3605 11.2881 19.374 11.3447C19.3929 11.4241 19.4141 11.5127 19.3945 11.6016C19.3932 11.6076 19.3921 11.6144 19.3906 11.6211C19.3766 11.6857 19.3552 11.7818 19.3135 11.877C19.3023 12.1591 19.2896 12.4415 19.2754 12.7236C19.2539 13.1489 19.2286 13.5747 19.2041 14H19.207C19.3302 14 19.4494 14.0268 19.54 14.0781C19.6307 14.1294 19.6849 14.2016 19.6914 14.2744C19.7043 14.422 19.7121 14.5693 19.71 14.7188C19.7075 14.8996 19.6899 15.0818 19.6523 15.2588C19.6259 15.3833 19.593 15.506 19.5537 15.627C19.5497 15.6392 19.5461 15.6519 19.542 15.6641C19.542 15.7744 19.5346 15.8852 19.5195 15.96C19.5071 16.0216 19.4765 16.0592 19.4502 16.0908C19.4322 16.1125 19.4165 16.1317 19.4092 16.1543C19.4053 16.1665 19.4001 16.1838 19.3945 16.2041C19.372 16.2877 19.3304 16.4312 19.2471 16.54C19.2103 16.5882 19.1568 16.6386 19.1055 16.6855C19.032 16.7529 18.9623 16.8125 18.9502 16.8555C18.929 16.9309 18.8715 16.9998 18.8203 17.0586C18.7716 17.1147 18.7282 17.1625 18.7256 17.2041C18.7225 17.254 18.6935 17.2801 18.6504 17.3174C18.6203 17.3434 18.5831 17.375 18.542 17.4238C18.4944 17.4802 18.4494 17.5119 18.4111 17.5381C18.3574 17.5747 18.3171 17.6013 18.2959 17.6729C18.2723 17.7524 18.235 17.8277 18.1855 17.8691C18.163 17.888 18.1414 17.914 18.1191 17.9404C18.0898 17.9753 18.0578 18.0112 18.0195 18.0352C17.9879 18.0549 17.9504 18.0605 17.917 18.0645C17.9066 18.0657 17.896 18.0669 17.8867 18.0684C17.8671 18.0887 17.8477 18.1095 17.8281 18.1299C17.8276 18.1357 17.8267 18.142 17.8262 18.1484C17.8236 18.182 17.8198 18.224 17.8008 18.2607C17.7707 18.3184 17.7216 18.3456 17.6699 18.373C17.6294 18.3945 17.5864 18.4166 17.5488 18.4541C17.5233 18.4796 17.4981 18.5136 17.4727 18.5469C17.4349 18.5965 17.396 18.6456 17.3574 18.6641C17.343 18.6708 17.3232 18.6669 17.3037 18.6631L17.2998 18.6621C17.2262 18.7326 17.1509 18.8025 17.0742 18.8711C17.0691 18.8792 17.0638 18.8875 17.0586 18.8955C17.0331 18.935 17.0075 18.9735 16.998 19.0098C16.9877 19.0491 16.9331 19.1042 16.873 19.1602C16.8338 19.1969 16.792 19.2341 16.7607 19.2695C16.7425 19.2899 16.7133 19.2887 16.6836 19.2871C16.6557 19.2856 16.6269 19.2841 16.6055 19.2998C16.5948 19.3077 16.5845 19.3198 16.5742 19.333C16.5651 19.3447 16.5554 19.3578 16.5439 19.3682C16.533 19.3777 16.5017 19.3844 16.4619 19.3926C16.4371 19.3977 16.4087 19.403 16.3799 19.4102C16.3148 19.4526 16.2481 19.4941 16.1807 19.5332C16.1715 19.552 16.1654 19.5737 16.1641 19.5986C16.1631 19.6166 16.1647 19.6374 16.166 19.6582C16.1678 19.6868 16.1692 19.7173 16.165 19.7432C16.1618 19.7629 16.153 19.7743 16.1426 19.7715C16.1376 19.7699 16.1317 19.765 16.127 19.7607C16.1215 19.7559 16.1164 19.7515 16.1133 19.7529C16.1112 19.7542 16.1102 19.7595 16.1094 19.7656C16.108 19.7758 16.1068 19.7897 16.0977 19.7939C16.0631 19.8096 16.0213 19.8223 15.9805 19.834C15.935 19.847 15.8896 19.8585 15.8564 19.874C15.8192 19.8914 15.7587 19.8946 15.6982 19.8965C15.6558 19.8978 15.6128 19.8987 15.5781 19.9043C15.5443 19.9098 15.5128 19.9297 15.4824 19.9482C15.4461 19.9704 15.4105 19.9911 15.374 19.9854C15.3666 19.9841 15.3532 19.9681 15.3369 19.9482C15.3254 19.9342 15.3126 19.9177 15.2988 19.9033C15.2577 19.9141 15.2163 19.9241 15.1748 19.9326C15.174 19.9353 15.1727 19.9386 15.1719 19.9414C15.1521 20.0074 15.1228 20.0976 15.0459 20.0645C15.0264 20.056 15.0108 20.0358 14.9971 20.0176C14.9837 19.9998 14.9718 19.9838 14.959 19.9824C14.9444 19.981 14.9303 19.997 14.915 20.0137C14.8938 20.0369 14.8693 20.0627 14.8379 20.0488C14.8358 20.0479 14.8334 20.046 14.8311 20.0449C14.8183 20.0392 14.8025 20.0311 14.7842 20.0195C14.7645 20.0753 14.7422 20.1302 14.7178 20.1836C14.7156 20.1909 14.7133 20.1986 14.7109 20.2061C14.6662 20.3526 14.584 20.5281 14.501 20.6162C14.3966 20.7286 14.3121 20.7896 14.2422 20.8359C13.8969 21.1522 13.4587 21.3337 13.0195 21.3779C12.9295 21.3872 12.8398 21.3909 12.75 21.3896C12.702 21.389 12.6543 21.3864 12.6064 21.3828C12.4804 21.3733 12.3547 21.3537 12.2314 21.3223C12.1568 21.3142 12.0837 21.3045 12.0166 21.292C11.9224 21.2745 11.8385 21.2506 11.7744 21.2207C11.6187 21.1493 11.4773 21.0114 11.3887 20.9014C11.374 20.8835 11.36 20.8665 11.3477 20.8506C11.2645 20.7757 11.1869 20.6934 11.1162 20.6045C11.116 20.5956 11.1161 20.5863 11.1162 20.5771C11.118 20.4618 11.0581 20.367 10.9893 20.2002C10.9599 20.1276 10.9293 20.0414 10.9092 19.9365C10.8965 19.8687 10.9168 19.8289 10.9326 19.7979C10.9372 19.7889 10.9419 19.7806 10.9453 19.7725C10.9571 19.744 10.9356 19.719 10.9121 19.6875C10.8817 19.6475 10.8466 19.594 10.874 19.5234C10.8771 19.5155 10.88 19.5076 10.8828 19.5C10.9619 19.2986 10.9246 19.2089 10.8936 19.127C10.8846 19.1029 10.877 19.0802 10.875 19.0586C10.8684 18.9875 10.9173 18.8979 10.9707 18.8418C11.0122 18.7967 11.0345 18.6861 11.0498 18.5947C11.0553 18.5603 11.0768 18.5205 11.1045 18.4756C11.1332 18.429 11.168 18.3761 11.1992 18.3145C11.2795 18.1582 11.3394 18.0815 11.3857 18.0205C11.3991 18.0034 11.4119 17.9874 11.4248 17.9717C11.466 17.9216 11.5238 17.8642 11.5859 17.8105C11.6598 17.7464 11.741 17.6872 11.8027 17.6396C11.9872 17.5628 12.1829 17.5167 12.377 17.5C12.4772 17.4912 12.579 17.5373 12.6484 17.625C12.7181 17.713 12.7503 17.8337 12.75 17.957C12.7496 18.0802 12.721 18.1987 12.6846 18.292C12.6471 18.3851 12.605 18.4456 12.5566 18.4648C12.4584 18.503 12.3688 18.555 12.2891 18.6143C12.1917 18.6867 12.1078 18.7699 12.0303 18.8564C11.976 18.917 11.9271 18.9827 11.8848 19.0527C11.8805 19.0598 11.8762 19.067 11.8721 19.0742C11.8691 19.1495 11.8749 19.22 11.873 19.2656C11.8713 19.3028 11.8505 19.3255 11.833 19.3467C11.821 19.3612 11.8101 19.3747 11.8096 19.3896C11.8094 19.3977 11.8103 19.4096 11.8115 19.4229C11.8134 19.444 11.8169 19.4705 11.8193 19.5C11.8231 19.5466 11.8251 19.5985 11.8154 19.6514C11.8082 19.6899 11.7925 19.739 11.7812 19.7881C11.7647 19.8577 11.7587 19.9292 11.7812 19.9531C11.8203 19.9949 11.8374 20.0552 11.8584 20.1094C11.878 20.1606 11.9015 20.2053 11.9346 20.2119C11.9738 20.2197 11.9839 20.2454 12.0029 20.2842C12.0162 20.3109 12.0345 20.3444 12.0693 20.3779C12.1094 20.4163 12.1334 20.452 12.1553 20.4824C12.1858 20.5248 12.2136 20.5578 12.2754 20.5547C12.3438 20.551 12.4067 20.5508 12.4502 20.5732C12.4701 20.5835 12.4947 20.5886 12.5205 20.5928C12.5547 20.5984 12.5909 20.6022 12.623 20.6172C12.6494 20.6295 12.6701 20.6556 12.6904 20.6777C12.6966 20.6846 12.703 20.6916 12.709 20.6973C12.7225 20.6975 12.7364 20.6976 12.75 20.6973C12.7601 20.697 12.7702 20.6968 12.7803 20.6963C12.784 20.6924 12.788 20.6872 12.792 20.6826C12.8118 20.6598 12.8353 20.6316 12.8633 20.6152C12.908 20.5893 12.949 20.5961 12.9951 20.6006C13.0307 20.604 13.0693 20.6057 13.1074 20.5889C13.1332 20.5774 13.1598 20.557 13.1846 20.5361C13.222 20.5048 13.2555 20.4722 13.2871 20.4648C13.299 20.4622 13.3156 20.47 13.332 20.4775L13.335 20.4795C13.3967 20.4291 13.452 20.3712 13.499 20.3096C13.5012 20.3024 13.5038 20.2952 13.5059 20.2881C13.5163 20.2527 13.5236 20.2177 13.5176 20.1865C13.5113 20.1528 13.5323 20.1038 13.5479 20.0518C13.5581 20.0178 13.5664 19.9824 13.5664 19.9512C13.5664 19.9329 13.5869 19.9264 13.6084 19.9189C13.6282 19.9122 13.6489 19.904 13.6523 19.8867C13.6539 19.8781 13.6512 19.8669 13.6484 19.8555C13.646 19.8453 13.6431 19.8343 13.6426 19.8242C13.6425 19.8148 13.6574 19.7992 13.6748 19.7783C13.6855 19.7655 13.6977 19.7501 13.708 19.7334C13.7105 19.6822 13.7085 19.6318 13.7041 19.582C13.6914 19.5707 13.6745 19.5607 13.6523 19.5527C13.6364 19.547 13.6173 19.5419 13.5977 19.5371C13.571 19.5307 13.5435 19.524 13.5215 19.5166C13.5045 19.5109 13.4973 19.5052 13.5039 19.501L13.5049 19.5C13.5084 19.4983 13.5144 19.4964 13.5195 19.4951C13.5259 19.4935 13.5321 19.492 13.5322 19.4902C13.5317 19.489 13.5268 19.4878 13.5215 19.4863C13.5125 19.4839 13.5007 19.4805 13.5 19.4756C13.498 19.4575 13.5006 19.4365 13.502 19.416C13.5035 19.3929 13.5039 19.3693 13.4971 19.3525C13.4897 19.3338 13.5 19.3027 13.5078 19.2695C13.5133 19.2467 13.5176 19.2229 13.5156 19.2041C13.5136 19.1856 13.4974 19.1713 13.4814 19.1592C13.4622 19.1445 13.4436 19.1318 13.4482 19.1094C13.4497 19.1046 13.4635 19.0917 13.4805 19.0752C13.4927 19.0633 13.5065 19.0491 13.5186 19.0352C13.5056 19.0139 13.4921 18.9927 13.4785 18.9717C13.4761 18.9724 13.4732 18.9738 13.4707 18.9746C13.4099 18.9926 13.333 19.0253 13.3467 18.9678C13.35 18.9529 13.3627 18.933 13.374 18.915C13.3851 18.8974 13.3949 18.881 13.3926 18.873C13.3896 18.8644 13.374 18.8657 13.3574 18.8682C13.3338 18.8715 13.3081 18.8772 13.3086 18.8525C13.3086 18.8509 13.3086 18.8485 13.3086 18.8467C13.3088 18.8284 13.3088 18.8012 13.3193 18.7568C13.2822 18.7143 13.2417 18.6728 13.1973 18.6338C13.1231 18.5687 13.0373 18.51 12.9404 18.4648C12.8935 18.4427 12.8514 18.381 12.8145 18.2881C12.7785 18.1951 12.7503 18.0781 12.75 17.957C12.7497 17.8361 12.7807 17.7177 12.8486 17.6299C12.9165 17.5422 13.0163 17.4945 13.1152 17.499C13.2756 17.5063 13.4385 17.5328 13.5967 17.5811C13.6056 17.5822 13.6152 17.5844 13.624 17.5859C13.6893 17.5971 13.7583 17.5938 13.8291 17.5947C13.8453 17.5949 13.8617 17.5959 13.8779 17.5967C14.0041 17.6012 14.1691 17.7503 14.2451 17.8398C14.2465 17.8414 14.2477 17.8432 14.249 17.8447C14.2675 17.8657 14.2863 17.8842 14.3076 17.9062C14.3574 17.9594 14.4302 18.0323 14.5215 18.2188C14.5573 18.2658 14.5913 18.3146 14.6221 18.3652C14.6822 18.4637 14.7308 18.5688 14.7715 18.6768C14.7998 18.6767 14.8345 18.6769 14.8779 18.6807C14.9091 18.6718 14.9402 18.6635 14.9717 18.6553C15.3117 18.5662 15.658 18.4852 16.0049 18.3711C16.0086 18.3688 16.0128 18.3666 16.0166 18.3643C16.0939 18.3175 16.1877 18.2561 16.2588 18.2383C16.3493 18.2158 16.4146 18.2038 16.4688 18.1943C16.7377 18.0751 16.9984 17.9253 17.2275 17.7354C17.2993 17.6759 17.368 17.6121 17.4326 17.5449C17.4921 17.4831 17.5489 17.4184 17.6025 17.3516C17.6258 17.3056 17.6451 17.2593 17.6621 17.2168C17.6859 17.1573 17.7058 17.1042 17.7285 17.0654C17.7836 16.9721 17.8712 16.8853 17.9355 16.8184C17.946 16.8075 17.9568 16.7968 17.9658 16.7871C17.9991 16.7225 18.0308 16.6569 18.0605 16.5908C18.0671 16.5892 18.0742 16.5875 18.0811 16.5859C18.1676 16.5658 18.2061 16.4976 18.2617 16.3906C18.2859 16.3439 18.314 16.2893 18.3496 16.2266C18.3611 16.2064 18.3751 16.1934 18.3896 16.1846L18.4541 16.1582C18.4764 16.1477 18.4699 16.1223 18.4609 16.0928C18.4493 16.0543 18.4349 16.0095 18.4795 15.9766C18.6215 15.8704 18.5874 15.781 18.5605 15.7188C18.5527 15.7003 18.545 15.6831 18.543 15.668C18.5366 15.6189 18.5779 15.5664 18.6211 15.5293C18.6553 15.5001 18.6544 15.4198 18.6406 15.3564C18.6354 15.3325 18.643 15.3039 18.6514 15.2705C18.66 15.2359 18.6694 15.1953 18.667 15.1494C18.6632 15.0816 18.6589 15.0327 18.6562 14.9941C18.5534 14.9725 18.4553 14.8862 18.377 14.7471C18.286 14.5852 18.2292 14.3656 18.2158 14.1367C18.1943 13.7633 18.1731 13.3891 18.1533 13.0156C18.1508 12.9962 18.1478 12.9765 18.1455 12.957C18.1285 12.8115 18.0947 12.6761 18.0605 12.541C18.0528 12.5102 18.0447 12.4792 18.0371 12.4482C17.9791 12.2112 18.0026 11.7536 18.0156 11.502C18.0158 11.4975 18.0164 11.4927 18.0166 11.4883C18.0197 11.4287 18.0206 11.3717 18.0215 11.3057C18.0225 11.2257 18.0235 11.1313 18.0293 11C18.0348 10.8839 18.0428 10.7389 18.0469 10.5391C18.0371 10.4227 18.0246 10.3064 18.0098 10.1904C17.852 8.94145 17.3543 7.72941 16.542 6.73242C16.5311 6.7206 16.5201 6.70834 16.5088 6.69629C16.2898 6.46009 15.9926 6.19502 15.8105 6.02148C15.5802 5.79949 15.4131 5.65615 15.2744 5.54004C14.435 4.93995 13.4352 4.54421 12.3926 4.42773C12.18 4.4037 11.9657 4.39095 11.75 4.38965C11.635 4.38896 11.5208 4.39167 11.4072 4.39746C11.1038 4.41298 10.8039 4.4507 10.5068 4.51074C10.3364 4.55604 10.1766 4.60935 10.0312 4.66309C9.82723 4.7385 9.65012 4.81532 9.50391 4.875C9.15008 5.01741 8.75152 5.18688 8.46484 5.33691C8.41803 5.36112 8.37439 5.385 8.33398 5.40723C8.1192 5.54801 7.91341 5.70129 7.71777 5.86621C7.70148 5.87293 7.68476 5.87985 7.66797 5.88672C7.45762 5.974 7.24593 6.15001 6.95215 6.45996C6.82469 6.59551 6.68173 6.75733 6.52246 6.95508C6.42022 7.08262 6.35193 7.13703 6.29492 7.18164C6.27832 7.19472 6.26277 7.20745 6.24805 7.2207C6.19731 7.26655 6.17197 7.33479 6.14453 7.41504C6.10888 7.51949 6.06886 7.64343 5.96191 7.77637C5.62287 8.20633 5.59717 8.46513 5.5752 8.64551C5.56928 8.69927 5.56438 8.74826 5.55469 8.7959C5.52249 8.95067 5.43524 9.1555 5.36328 9.3125C5.30489 9.43618 5.26793 9.70676 5.26562 9.91211C5.26417 9.99023 5.24958 10.0924 5.23535 10.2139C5.22055 10.3402 5.20657 10.4849 5.21094 10.6426C5.21497 10.7829 5.22261 10.8997 5.23047 11C5.24479 11.1937 5.2546 11.3282 5.2627 11.4443C5.26627 11.4957 5.26906 11.544 5.27246 11.5918C5.28322 11.7429 5.29184 11.9312 5.30078 12.1211C5.31147 12.3481 5.32243 12.5786 5.33691 12.7539C5.32157 13.2088 5.30312 13.6643 5.28418 14.1191C5.27431 14.3527 5.2192 14.577 5.12793 14.7422C5.03654 14.9073 4.91646 15 4.79297 15C4.66964 14.9998 4.55027 14.9071 4.45898 14.7422C4.3677 14.577 4.31261 14.3527 4.30273 14.1191C4.28314 13.6486 4.26366 13.1776 4.24805 12.707C4.22917 12.1382 4.21603 11.5688 4.21582 11C4.21582 10.9952 4.21581 10.9902 4.21582 10.9854C4.21661 10.5541 4.2566 10.122 4.33594 9.69824C4.3441 9.65462 4.35334 9.61072 4.3623 9.56738C4.40025 9.20566 4.47226 8.84686 4.54492 8.59961C4.60449 8.39571 4.67671 8.25558 4.73926 8.13867C4.78236 8.05845 4.82158 7.98765 4.85352 7.91309C4.8707 7.87299 4.89402 7.8177 4.92285 7.75195C5.0387 7.48245 5.26662 7.03345 5.55371 6.67871C5.67982 6.5208 5.84254 6.35014 6.00391 6.19629C6.23432 5.97523 6.46337 5.78901 6.5625 5.67871C6.73596 5.48405 6.97192 5.29815 7.1875 5.14746C7.39307 5.0029 7.57989 4.88841 7.67285 4.80273C7.78401 4.70041 7.89827 4.63986 8.06934 4.55859C8.18857 4.5024 8.33558 4.43647 8.53418 4.3457C8.76314 4.24174 8.93481 4.18968 9.08008 4.14844C9.28587 4.09106 9.43916 4.05346 9.6582 3.95801C9.90183 3.8522 10.1695 3.77002 10.3857 3.74023C10.484 3.7265 10.5977 3.70595 10.7139 3.68848C10.8681 3.66515 11.0326 3.64643 11.1826 3.64648C11.3069 3.64646 11.411 3.66541 11.501 3.68359C11.529 3.68925 11.556 3.69427 11.582 3.69922C11.6379 3.69778 11.6939 3.69756 11.75 3.69727C11.7919 3.69705 11.8342 3.69686 11.876 3.69727C11.8917 3.6937 11.9085 3.68951 11.9258 3.68555C12.0135 3.66553 12.1217 3.64212 12.2568 3.6377Z" fill="#514024"/>
<rect x="3.25" y="10" width="3.5" height="6" rx="1.75" fill="#DAC48F"/>
<rect x="17.25" y="10" width="3.5" height="6" rx="1.75" fill="#BB9E5B"/>
</svg>
