<svg width="24" height="24" viewBox="0 0 24 24" fill="none" xmlns="http://www.w3.org/2000/svg">
<path d="M20.055 4.41964C20.212 4.34806 20.3919 4.34022 20.5546 4.39766C20.717 4.45517 20.851 4.57459 20.9281 4.72871C20.9814 4.83926 21.0026 4.96278 20.9881 5.08467C20.9736 5.20694 20.9242 5.32346 20.8461 5.41865L9.62244 19.3697C9.56175 19.446 9.48474 19.5076 9.39686 19.5499C9.3088 19.5921 9.21179 19.6148 9.11414 19.6143L9.11268 19.6129C8.91689 19.6138 8.73029 19.5249 8.60731 19.3712L3.06288 12.5172C2.98203 12.4177 2.9327 12.2963 2.92079 12.1686C2.90897 12.0409 2.93436 11.9122 2.9955 11.7995L4.05604 9.81607C4.11143 9.71141 4.19477 9.62363 4.29628 9.56265C4.37233 9.51707 4.45656 9.48795 4.54384 9.47623L4.63173 9.47037C4.7192 9.47 4.80602 9.48763 4.88661 9.52164C4.96735 9.55583 5.04117 9.60638 5.10194 9.66959L8.79334 13.4723C8.89471 13.5711 9.02838 13.6304 9.16981 13.6363C9.31135 13.6423 9.45012 13.5946 9.55945 13.5045L19.9115 4.51485C19.955 4.47701 20.003 4.44441 20.055 4.41964Z" fill="#5D492C"/>
</svg>
