<svg width="24" height="24" viewBox="0 0 24 24" fill="none" xmlns="http://www.w3.org/2000/svg">
<path d="M12 2C17.5228 2 22 6.47715 22 12C21.9999 17.5228 17.5228 22 12 22C6.47719 22 2.00007 17.5228 2 12C2 6.47715 6.47715 2 12 2ZM16.4033 9.46777C16.0352 9.10371 15.4555 9.08388 15.0645 9.40625L14.9893 9.47559L11.2529 13.2529L9.28711 11.2373C8.90132 10.8421 8.26825 10.8349 7.87305 11.2207C7.50281 11.5824 7.47255 12.1611 7.78809 12.5576L7.85547 12.6348L10.5332 15.377C10.7204 15.5688 10.9771 15.6777 11.2451 15.6787C11.5133 15.6796 11.7713 15.5724 11.96 15.3818L16.4111 10.8818L16.4785 10.8057C16.7969 10.4112 16.7713 9.83197 16.4033 9.46777Z" fill="#514024"/>
</svg>
