<svg width="24" height="25" viewBox="0 0 24 25" fill="none" xmlns="http://www.w3.org/2000/svg">
<mask id="mask0_67_2376" style="mask-type:alpha" maskUnits="userSpaceOnUse" x="0" y="0" width="24" height="25">
<path d="M23.4287 0.285889H0.571286C0.255773 0.285889 0 0.541662 0 0.857174V23.7146C0 24.0301 0.255773 24.2859 0.571286 24.2859H23.4287C23.7442 24.2859 24 24.0301 24 23.7146V0.857174C24 0.541662 23.7442 0.285889 23.4287 0.285889Z" fill="white"/>
</mask>
<g mask="url(#mask0_67_2376)">
<path d="M11.3794 2.6337C11.9375 2.2863 12.6716 2.45747 13.019 3.01553L15.9477 7.71964L21.0132 8.7919C21.2062 8.83276 21.3857 8.92088 21.5356 9.04776L21.5981 9.1044C22.0685 9.56363 22.0777 10.3175 21.6186 10.788L17.9722 14.5224L18.8022 19.9794C18.8324 20.1779 18.8125 20.3806 18.7436 20.5683L18.7104 20.6474C18.4402 21.2467 17.7356 21.5133 17.1362 21.2431L12.0151 18.9345L6.88426 21.245C6.70264 21.3268 6.50387 21.3615 6.30614 21.3466L6.22118 21.3378C5.57107 21.2416 5.12241 20.6364 5.21825 19.9862L6.02489 14.5243L2.38426 10.7919C2.24495 10.6491 2.14404 10.4733 2.09032 10.2821L2.06981 10.1991C1.938 9.55499 2.35341 8.92567 2.99755 8.79385L8.24364 7.71964L10.9809 3.04385C11.0646 2.9009 11.1773 2.77632 11.311 2.6796L11.3794 2.6337Z" fill="#5D492C"/>
</g>
</svg>
