<svg width="24" height="24" viewBox="0 0 24 24" fill="none" xmlns="http://www.w3.org/2000/svg">
<path d="M15.5683 8.63771C15.8031 8.63771 16.0346 8.65488 16.2638 8.6798C15.6392 5.80144 12.5288 3.66235 8.97882 3.66235C5.0096 3.66235 1.75806 6.33968 1.75806 9.73909C1.75806 11.701 2.84006 13.3124 4.64747 14.5622L3.9254 16.7121L6.44935 15.4592C7.35306 15.6359 8.07732 15.818 8.97882 15.818C9.2053 15.818 9.42954 15.807 9.65271 15.7893C9.5115 15.312 9.42954 14.8114 9.42954 14.2925C9.42957 11.1711 12.1385 8.63771 15.5683 8.63771ZM11.6866 6.70018C12.2304 6.70018 12.5903 7.05457 12.5903 7.59226C12.5903 8.12772 12.2304 8.48654 11.6866 8.48654C11.145 8.48654 10.6024 8.12772 10.6024 7.59226C10.6024 7.05457 11.1451 6.70018 11.6866 6.70018ZM6.63318 8.48651C6.09161 8.48651 5.54562 8.12769 5.54562 7.59223C5.54562 7.05454 6.09161 6.70016 6.63318 6.70016C7.17416 6.70016 7.53466 7.05454 7.53466 7.59223C7.53466 8.12772 7.17416 8.48651 6.63318 8.48651ZM22.1589 14.2067C22.1589 11.3499 19.2701 9.02145 16.0257 9.02145C12.5903 9.02145 9.88473 11.3499 9.88473 14.2067C9.88473 17.0676 12.5903 19.3911 16.0257 19.3911C16.7445 19.3911 17.4699 19.2127 18.1919 19.0334L20.1727 20.1065L19.6294 18.3212C21.0792 17.2448 22.1589 15.818 22.1589 14.2067ZM14.0344 13.3124C13.6751 13.3124 13.3124 12.9585 13.3124 12.5975C13.3124 12.2415 13.6751 11.8832 14.0344 11.8832C14.5804 11.8832 14.9382 12.2415 14.9382 12.5975C14.9382 12.9585 14.5804 13.3124 14.0344 13.3124ZM18.0059 13.3124C17.6493 13.3124 17.2888 12.9585 17.2888 12.5975C17.2888 12.2415 17.6493 11.8832 18.0059 11.8832C18.5474 11.8832 18.9096 12.2415 18.9096 12.5975C18.9096 12.9585 18.5474 13.3124 18.0059 13.3124Z" fill="#5D492C"/>
</svg>
