<svg width="24" height="24" viewBox="0 0 24 24" fill="none" xmlns="http://www.w3.org/2000/svg">
<path d="M14.6875 10.2639C14.7145 10.2648 14.7404 10.265 14.7646 10.2659C14.7715 10.2661 14.7783 10.2666 14.7852 10.2668C14.8752 10.2699 14.9608 10.2707 15.0625 10.2717C15.3034 10.2764 15.6222 10.2693 16.3301 10.3352C16.5382 10.3442 16.7513 10.3591 16.9736 10.3889C17.3247 10.4359 17.7192 10.5271 18.0889 10.72C18.6056 10.9876 19.0552 11.382 19.3877 11.8567C20.1398 13.0741 20.0539 14.1273 20.2305 15.1624C20.266 15.4471 20.3011 15.7339 20.335 16.0208C20.3391 16.0471 20.3434 16.0733 20.3477 16.1008C20.4309 16.6301 20.5252 17.3005 20.5234 17.7493C20.5252 18.3152 20.4554 18.7415 20.3359 19.0813C20.2989 19.2014 20.2523 19.3215 20.1973 19.4368C19.9091 20.0396 19.4464 20.5519 18.8848 20.8977C17.7735 21.5192 16.7091 21.3602 15.7061 21.3948C15.3637 21.394 15.0275 21.3912 14.6875 21.3899C14.4988 21.3892 14.3098 21.3889 14.1211 21.3889C13.6361 21.3889 13.151 21.3903 12.666 21.3938C12.3835 21.4064 12.1143 21.4219 11.8652 21.4358C11.5153 21.4553 11.2037 21.4731 10.9463 21.4788C10.4625 21.4894 9.92747 21.4779 9.46777 21.4651C9.3367 21.4615 9.21324 21.458 9.09863 21.4543C9.01342 21.4517 8.93262 21.4488 8.8584 21.4465C8.44184 21.4533 8.02273 21.4595 7.59766 21.4534C7.56967 21.4476 7.54113 21.4421 7.51172 21.4358C7.14945 21.3473 6.70752 21.3627 5.96289 21.1711C5.73578 21.1062 5.47508 21.0087 5.21387 20.8352C5.10979 20.7659 5.00523 20.6868 4.90137 20.5979C4.67729 20.4031 4.59654 20.268 4.53223 20.1624C4.51366 20.131 4.49699 20.1009 4.47949 20.0715C4.41941 19.9704 4.3339 19.8814 4.23926 19.7678C4.14824 19.6582 4.04692 19.5242 3.96875 19.3391C3.94071 19.2725 3.91731 19.1986 3.89941 19.1194C3.73676 18.1274 3.82448 17.7624 3.78125 17.4534C3.77635 17.3646 3.77249 17.2846 3.77539 17.2034C3.78422 16.9411 3.86176 16.5803 3.93652 16.3137C3.99498 16.1029 4.04566 15.6701 4.07324 15.343C4.08029 15.2604 4.09484 15.1632 4.11426 15.0481C4.12449 14.9874 4.13544 14.9256 4.14746 14.8577C4.18322 14.6558 4.22479 14.423 4.25977 14.1682C4.34749 13.5271 4.41948 13.1715 4.49805 12.8801C4.52066 12.7969 4.54425 12.7175 4.57031 12.6389C4.64282 12.4192 4.76213 12.1395 4.94824 11.8782C4.97043 11.8467 4.99424 11.8153 5.01758 11.7844C5.26194 11.4579 5.575 11.1781 5.83398 10.9944C5.94797 10.9231 6.06642 10.8588 6.1875 10.801C6.87215 10.4808 7.53114 10.4882 8.11816 10.4778C8.48415 10.4769 8.825 10.5327 9.07617 10.6233C9.32678 10.7144 9.46714 10.8338 9.46777 10.9573C9.46672 11.0805 9.32571 11.1997 9.07715 11.2913C8.82789 11.3831 8.49091 11.4383 8.14746 11.4583C7.58985 11.4921 7.04733 11.5481 6.66797 11.759C6.56761 11.813 6.47078 11.874 6.37891 11.9407C6.15765 12.1012 5.9637 12.2973 5.80566 12.5178C5.57102 12.84 5.44579 13.3129 5.33496 13.8196C5.2375 14.2718 5.15464 14.7435 5.06641 15.217C5.04318 15.3425 5.01995 15.4662 4.99707 15.5891C4.9857 15.6502 4.97407 15.7135 4.96289 15.7737C4.90468 16.2783 4.84956 16.7793 4.81348 17.1223C4.78317 17.4057 4.7464 17.607 4.7207 17.7756C4.70316 17.8918 4.69096 17.9929 4.69141 18.094C4.69172 18.1481 4.69365 18.2215 4.7002 18.3059C4.71481 18.4967 4.75299 18.7396 4.84961 18.9602C4.93976 19.1699 5.06365 19.3825 5.20508 19.5715C5.33468 19.7467 5.50668 19.937 5.70215 20.093C5.71227 20.1013 5.72306 20.1104 5.7334 20.1184C5.99906 20.3296 6.36789 20.4369 6.55859 20.4583C6.89399 20.4969 7.30065 20.5372 7.66797 20.5627C8.01787 20.587 8.33133 20.5995 8.50781 20.5803C8.71919 20.5571 8.90018 20.5683 9.16992 20.5833C9.25934 20.5881 9.35451 20.5931 9.46777 20.5979C9.59269 20.6033 9.73529 20.6079 9.90039 20.6106C10.2612 20.6164 10.5164 20.634 10.7334 20.6487C11.0388 20.6693 11.2689 20.685 11.6113 20.6565C11.9916 20.6248 12.3891 20.6045 12.7021 20.6145C12.8447 20.6191 13.0081 20.6176 13.1777 20.6165C13.4025 20.6149 13.6396 20.6139 13.8555 20.6252C14.0332 20.6346 14.1805 20.6587 14.3105 20.6799C14.3509 20.6865 14.3902 20.693 14.4277 20.6985C14.5143 20.6983 14.6009 20.6978 14.6875 20.6975C14.7432 20.6973 14.7983 20.6968 14.8525 20.6965C14.875 20.6927 14.8994 20.6882 14.9248 20.6838C15.0516 20.6617 15.2047 20.6345 15.3975 20.6204C15.6988 20.5979 15.9662 20.6096 16.2422 20.6174C16.4583 20.6233 16.6843 20.6272 16.9355 20.6057C17.1073 20.5909 17.2998 20.5624 17.4824 20.5247C17.7559 20.4697 17.9987 20.387 18.1572 20.3284C18.2168 20.307 18.2718 20.2966 18.3262 20.2844H18.3271C18.3308 20.2836 18.3352 20.2824 18.3389 20.2815C18.3747 20.2606 18.4095 20.2383 18.4434 20.2151C18.7695 19.9922 19.0418 19.6948 19.2344 19.3557C19.2505 19.3219 19.2666 19.2875 19.2812 19.2532C19.3096 19.1871 19.3352 19.1202 19.3555 19.0569C19.3836 18.9663 19.3977 18.8807 19.4004 18.8147C19.4079 18.6986 19.4477 18.4078 19.4258 18.0579C19.4139 17.831 19.3842 17.5854 19.3496 17.385C19.3395 17.3259 19.3356 17.2675 19.334 17.2092V16.8625C19.3319 16.8044 19.3266 16.7446 19.3164 16.6829C19.3063 16.6215 19.2902 16.5538 19.2734 16.4836C19.2585 16.4205 19.2426 16.3555 19.2285 16.2854C19.2155 16.2201 19.2029 16.0744 19.1855 15.885C19.1751 15.7696 19.1632 15.6367 19.1484 15.4973C19.1387 15.4428 19.1281 15.3864 19.1182 15.3303C19.063 15.0199 19.0091 14.7138 18.9521 14.4094C18.9265 14.3362 18.8983 14.2745 18.8672 14.2268C18.8452 14.1936 18.8208 14.1662 18.7959 14.1379C18.7618 14.0998 18.7263 14.0591 18.6934 14.0032C18.6676 13.9591 18.6498 13.906 18.6494 13.8674C18.6493 13.8499 18.653 13.8353 18.6562 13.8225C18.6599 13.8078 18.6632 13.7944 18.6602 13.7795C18.6578 13.7688 18.6509 13.7577 18.6426 13.7454C18.6293 13.7258 18.6122 13.7001 18.6025 13.6584C18.5668 13.503 18.5267 13.3301 18.4805 13.1799C18.4293 13.0117 18.3695 12.8726 18.3086 12.7786C18.2893 12.7485 18.2674 12.7144 18.2441 12.679C18.176 12.576 18.0907 12.456 17.9922 12.345C17.8964 12.2363 17.7879 12.1359 17.6855 12.0627C17.6179 12.0143 17.5417 11.9735 17.4639 11.9397C17.431 11.9258 17.3971 11.9136 17.3633 11.9026C17.2385 11.8618 17.1055 11.8372 16.9854 11.7981C16.9611 11.7901 16.9332 11.7662 16.8965 11.7366C16.8702 11.7154 16.8383 11.691 16.8008 11.6682C16.6279 11.6449 16.4429 11.6309 16.2539 11.6204C16.2472 11.6226 16.2394 11.6249 16.2324 11.6272C16.0734 11.6796 15.8569 11.7547 15.5479 11.7034C15.4689 11.6903 15.418 11.6666 15.373 11.6458C15.3298 11.6254 15.2888 11.6077 15.2314 11.6038C15.1657 11.5993 15.0878 11.6109 15.002 11.6243C14.9048 11.6396 14.7979 11.6565 14.6875 11.6516C14.6625 11.6505 14.6374 11.6484 14.6123 11.6448C14.6032 11.6434 14.5932 11.6423 14.583 11.6409C14.4852 11.6268 14.3403 11.6055 14.1963 11.5637C13.7688 11.5526 13.3406 11.5399 12.9131 11.5256C12.2006 11.5019 11.4879 11.4746 10.7754 11.4475C10.4287 11.4342 10.0957 11.3774 9.85059 11.2864C9.60617 11.1954 9.46835 11.0781 9.46777 10.9573C9.46779 10.8362 9.60572 10.7183 9.85059 10.6272C10.0957 10.5362 10.4287 10.4794 10.7754 10.4661C11.3407 10.4446 11.9063 10.4234 12.4717 10.4036C12.5013 10.4011 12.531 10.398 12.5605 10.3958C12.7809 10.3788 12.9858 10.3449 13.1904 10.3108C13.2373 10.303 13.2849 10.295 13.332 10.2874C13.6684 10.2331 14.2964 10.2508 14.6875 10.2639ZM12.25 1.88501C12.4637 1.89524 12.6763 1.92654 12.8828 1.97778C12.8963 1.98007 12.91 1.98209 12.9238 1.98462C13.1938 2.03074 13.5201 2.14253 13.7012 2.25708C13.9318 2.4002 14.0676 2.52443 14.1738 2.62817C14.8281 3.16473 15.2483 3.94112 15.3574 4.75122C15.3802 4.91658 15.3909 5.0838 15.3896 5.25024C15.389 5.3279 15.3887 5.40599 15.3887 5.48364C15.3887 5.68953 15.3901 5.89592 15.3936 6.10181C15.3989 6.1523 15.4052 6.20202 15.4111 6.25024C15.4192 6.32647 15.4246 6.39953 15.4277 6.47095C15.4355 6.64346 15.4285 6.8015 15.4072 6.92798C15.358 7.23507 15.2064 7.56017 15.0674 7.77759C15.0451 7.81326 15.0234 7.84683 15.0029 7.8772C14.9054 8.05742 14.7896 8.22901 14.6592 8.38892C14.6466 8.39589 14.6341 8.40361 14.6211 8.4104C14.455 8.49482 14.3094 8.6458 14.0371 8.83813C13.9184 8.92073 13.7743 9.00955 13.5938 9.09009C13.4771 9.14152 13.406 9.14135 13.3496 9.14087C13.333 9.14065 13.317 9.14023 13.3018 9.14087C13.2496 9.14315 13.2055 9.17652 13.1514 9.21411C13.0817 9.26255 12.992 9.31997 12.8584 9.31763C12.5483 9.30903 12.3789 9.32385 12.25 9.35669C12.2033 9.36806 12.1624 9.37987 12.125 9.39087C12.0843 9.40286 12.0462 9.41325 12.0078 9.41724C11.8826 9.43088 11.7063 9.38364 11.584 9.32544C11.4863 9.28122 11.2801 9.24956 11.1191 9.21899C11.0582 9.20799 10.9806 9.17713 10.8926 9.13599C10.8014 9.09338 10.698 9.03958 10.585 8.9856C10.2993 8.84653 10.1613 8.74098 10.0508 8.65942C10.0195 8.6357 9.99037 8.61316 9.96191 8.59009C9.87183 8.51725 9.76703 8.41765 9.66895 8.30884C9.55095 8.17882 9.44325 8.0344 9.3623 7.9231C9.19727 7.60838 9.08765 7.26726 9.03516 6.92114C9.00795 6.74346 9.04385 6.56406 9.12793 6.43872C9.2123 6.31269 9.33386 6.24997 9.45703 6.25024C9.58051 6.25071 9.69833 6.30992 9.79492 6.39868C9.89154 6.4886 9.95984 6.60145 9.99512 6.72192C10.0658 6.96564 10.1766 7.19343 10.3164 7.39771C10.487 7.64691 10.701 7.86158 10.9404 8.03735C11.108 8.16039 11.2907 8.26248 11.4844 8.33911C11.5042 8.34697 11.5248 8.35422 11.5449 8.36157C11.7206 8.38877 11.894 8.39216 12.0137 8.39478C12.1122 8.3972 12.1832 8.4158 12.2461 8.42993C12.2474 8.43022 12.2487 8.43062 12.25 8.43091C12.2916 8.44004 12.329 8.4468 12.3662 8.4436C12.387 8.4418 12.4155 8.43815 12.4492 8.43286C12.5187 8.42274 12.6099 8.40397 12.71 8.3811L13.3408 8.23071C13.4948 8.18682 13.6365 8.12292 13.6895 8.06763C13.7824 7.97162 13.9027 7.87885 14.002 7.7854C14.0965 7.69717 14.1718 7.60908 14.1904 7.54419C14.2123 7.46699 14.2547 7.41786 14.3135 7.33911C14.3539 7.28436 14.4029 7.21454 14.4492 7.1106C14.5021 6.99065 14.5443 6.90561 14.5781 6.8313C14.6248 6.72684 14.6556 6.64179 14.6416 6.51196C14.6315 6.42274 14.6216 6.33297 14.6152 6.25024C14.6114 6.19211 14.6105 6.13643 14.6143 6.08618C14.6188 6.0257 14.6174 5.95601 14.6162 5.88403C14.6147 5.78882 14.6137 5.6884 14.625 5.59692C14.6344 5.52154 14.6585 5.45872 14.6797 5.40356C14.6863 5.38645 14.6927 5.36968 14.6982 5.35376C14.6981 5.31942 14.6976 5.28458 14.6973 5.25024C14.697 5.22727 14.6962 5.2037 14.6953 5.18091C14.6913 5.17251 14.6863 5.16361 14.6816 5.15454C14.6577 5.10811 14.6276 5.05176 14.6064 4.98364C14.5727 4.87577 14.5685 4.77887 14.5576 4.67505C14.549 4.59456 14.5353 4.5093 14.498 4.42017C14.4726 4.35935 14.4349 4.29378 14.3945 4.23169C14.3347 4.139 14.2691 4.05404 14.2363 3.98657C14.2243 3.96143 14.2229 3.9327 14.2217 3.90454C14.2216 3.90272 14.2217 3.89963 14.2217 3.89771C14.1077 3.7522 13.9763 3.62143 13.833 3.50903C13.8188 3.50135 13.8042 3.49402 13.79 3.48657C13.7203 3.44983 13.6508 3.41888 13.5977 3.41138C13.5402 3.40284 13.4271 3.34262 13.3027 3.29517C13.2215 3.2637 13.1356 3.23732 13.0635 3.22485C13.0215 3.21751 12.99 3.18874 12.9561 3.1604C12.9244 3.13398 12.8899 3.10791 12.8467 3.09985C12.8251 3.09588 12.8002 3.09615 12.7744 3.09692C12.7517 3.0976 12.7276 3.09806 12.7031 3.09692C12.6803 3.09583 12.633 3.07775 12.5703 3.05786C12.5319 3.0456 12.4867 3.03283 12.4395 3.02271C12.3762 3.0222 12.3131 3.02404 12.25 3.02856C12.1848 3.03325 12.1203 3.04016 12.0566 3.05005C12.0318 3.06581 12.011 3.08615 11.9961 3.1106C11.9855 3.12812 11.9777 3.14921 11.9697 3.17017C11.9588 3.19883 11.9481 3.22908 11.9316 3.25415C11.9189 3.27339 11.902 3.28304 11.8887 3.27856C11.8825 3.2763 11.8761 3.27073 11.8711 3.26587C11.8654 3.26036 11.8603 3.25501 11.8555 3.2561C11.852 3.25702 11.849 3.26253 11.8457 3.2688C11.8403 3.27899 11.8331 3.29254 11.8193 3.29614C11.7668 3.30917 11.7061 3.32155 11.6475 3.33618C11.5821 3.35239 11.5187 3.37219 11.4717 3.39575C11.419 3.42194 11.3358 3.44111 11.2529 3.46802C11.1952 3.4866 11.1375 3.50937 11.0918 3.53442C11.0469 3.55905 11.0088 3.598 10.9746 3.63696C10.9336 3.68371 10.8972 3.73021 10.8506 3.75317C10.841 3.7577 10.8187 3.75291 10.791 3.74731C10.7714 3.74334 10.7487 3.73905 10.7256 3.73755C10.6788 3.78471 10.6332 3.83362 10.5898 3.88403C10.5903 3.88738 10.5903 3.89134 10.5908 3.89478L10.5996 3.95825C10.6064 4.02383 10.6014 4.09197 10.5303 4.13403C10.5061 4.14846 10.4783 4.15068 10.4531 4.15259C10.4283 4.15447 10.4057 4.15626 10.3926 4.17114C10.3779 4.18809 10.3754 4.2173 10.374 4.24829C10.372 4.29206 10.3719 4.34011 10.3359 4.37134C10.3335 4.37343 10.3308 4.37582 10.3281 4.37817C10.3021 4.40139 10.2642 4.43676 10.208 4.46704C10.1461 4.59723 10.095 4.73423 10.0566 4.87622C10.024 4.99709 9.99972 5.12254 9.98633 5.25024C9.97346 5.39843 9.96052 5.5474 9.94727 5.69556C9.93383 5.84237 9.87686 5.98326 9.78613 6.08716C9.6951 6.19102 9.57798 6.25011 9.45703 6.25024C9.33594 6.25022 9.21808 6.19115 9.12695 6.08716C9.03626 5.98327 8.97925 5.84233 8.96582 5.69556C8.95257 5.5474 8.93963 5.39844 8.92676 5.25024C8.91879 5.13934 8.91647 5.02773 8.91992 4.91626C8.91893 4.90096 8.91754 4.8848 8.91699 4.86938C8.91299 4.75435 8.89747 4.64289 8.88672 4.52954C8.8843 4.5037 8.8815 4.47746 8.87988 4.45142C8.86313 4.24894 9.01326 3.89636 9.11914 3.72095C9.12086 3.71789 9.12232 3.71425 9.12402 3.71118C9.14827 3.66902 9.17081 3.62887 9.19727 3.58228C9.26215 3.47266 9.34716 3.31521 9.60156 3.06079C9.66663 2.98002 9.73555 2.90201 9.80859 2.82837C10.4427 2.18208 11.3664 1.83615 12.25 1.88501Z" fill="#514024"/>
<path d="M11.25 14C11.25 13.4477 11.6977 13 12.25 13C12.8023 13 13.25 13.4477 13.25 14V17C13.25 17.5523 12.8023 18 12.25 18C11.6977 18 11.25 17.5523 11.25 17V14Z" fill="#BB9E5B"/>
</svg>
