<svg width="24" height="25" viewBox="0 0 24 25" fill="none" xmlns="http://www.w3.org/2000/svg">
<mask id="mask0_56_1523" style="mask-type:alpha" maskUnits="userSpaceOnUse" x="0" y="0" width="24" height="25">
<path d="M23.4287 0.285889H0.571286C0.255773 0.285889 0 0.541662 0 0.857174V23.7146C0 24.0301 0.255773 24.2859 0.571286 24.2859H23.4287C23.7442 24.2859 24 24.0301 24 23.7146V0.857174C24 0.541662 23.7442 0.285889 23.4287 0.285889Z" fill="white"/>
</mask>
<g mask="url(#mask0_56_1523)">
<path d="M11.311 2.67989C11.1773 2.77661 11.0648 2.90027 10.9812 3.04322L8.24387 7.71984L2.99745 8.79372C2.35332 8.92554 1.938 9.55457 2.06982 10.1987L2.08991 10.2816C2.14361 10.473 2.24451 10.6484 2.38393 10.7913L6.02472 14.5238L5.21789 19.9856C5.1218 20.636 5.57116 21.2412 6.22159 21.3373L6.30622 21.3467C6.50398 21.3616 6.70282 21.3269 6.88447 21.2451L12.0149 18.9338L17.1361 21.2433C17.7355 21.5135 18.4405 21.2467 18.7107 20.6474L18.7432 20.5679C18.812 20.3801 18.8326 20.1776 18.8024 19.979L17.972 14.5226L21.6184 10.7882C22.0777 10.3178 22.0687 9.56406 21.5983 9.10473L21.5358 9.04793C21.3858 8.9209 21.2062 8.83271 21.0131 8.79183L15.9474 7.71984L13.0194 3.01541C12.6719 2.45722 11.9378 2.28638 11.3796 2.63381L11.311 2.67989ZM12.0222 4.65813L14.6102 8.81543L14.6552 8.88248C14.8278 9.1219 15.0839 9.28954 15.3745 9.35103L19.7266 10.2716L16.5633 13.5116L16.5056 13.5751C16.2849 13.8364 16.1863 14.1815 16.2382 14.5224L16.9627 19.2848L12.5046 17.2745L12.426 17.2424C12.1346 17.1352 11.8115 17.1459 11.5264 17.2743L7.05372 19.2883L7.75864 14.5178L7.76809 14.433C7.7936 14.0938 7.6726 13.7581 7.43314 13.5126L4.28087 10.2806L8.81707 9.35262C9.14831 9.28484 9.4351 9.0794 9.60587 8.78759L12.0222 4.65813Z" fill="#5D492C"/>
</g>
</svg>
