<svg width="40" height="40" viewBox="0 0 40 40" fill="none" xmlns="http://www.w3.org/2000/svg">
<mask id="mask0_50_1916" style="mask-type:alpha" maskUnits="userSpaceOnUse" x="4" y="4" width="32" height="32">
<circle cx="20" cy="20" r="16" fill="#D9D9D9"/>
</mask>
<g mask="url(#mask0_50_1916)">
<rect x="-0.923096" y="1.53882" width="21.3333" height="38.5641" fill="#A99B7E"/>
</g>
<path d="M34 20C34 12.268 27.732 6 20 6C12.268 6 6 12.268 6 20C6 27.732 12.268 34 20 34V36C11.1634 36 4 28.8366 4 20C4 11.1634 11.1634 4 20 4C28.8366 4 36 11.1634 36 20C36 28.8366 28.8366 36 20 36V34C27.732 34 34 27.732 34 20Z" fill="#746449"/>
</svg>
