<svg width="24" height="24" viewBox="0 0 24 24" fill="none" xmlns="http://www.w3.org/2000/svg">
<path d="M12.3838 2.08691C12.5912 2.09365 12.7979 2.11866 13 2.16309C13.2615 2.22051 13.516 2.30997 13.7559 2.42676C13.9768 2.5343 14.1858 2.66602 14.3779 2.81934C14.4965 2.90035 14.6064 2.98383 14.7041 3.06738C14.8415 3.18481 14.9551 3.30336 15.0361 3.41016C15.2344 3.66689 15.3735 4.01393 15.4375 4.27637C15.4484 4.31921 15.4576 4.35982 15.4658 4.39746C15.5305 4.60181 15.5754 4.81404 15.5986 5.02832C15.5948 5.04287 15.5902 5.05744 15.5859 5.07227C15.5697 5.12783 15.5581 5.18604 15.5488 5.25C15.527 5.37991 15.5275 5.53888 15.5283 5.75195C15.5283 5.75935 15.5273 5.76689 15.5273 5.77441C15.9663 5.77473 16.522 5.82457 16.8887 5.89746C16.8977 5.8991 16.907 5.90067 16.916 5.90234C17.0327 5.92456 17.1481 5.9468 17.2812 5.97852C17.5695 6.06696 18.0586 6.1172 18.7617 6.75293C18.7974 6.78726 18.8335 6.82327 18.8691 6.86133C19.0834 7.07161 19.2635 7.32037 19.3994 7.57324C20.116 9.09813 20.0506 10.4351 20.2158 11.7861C20.2767 12.4539 20.3348 13.122 20.3926 13.79C20.4325 14.2524 20.4729 14.7142 20.5078 15.1797C20.5112 15.2115 20.5142 15.2441 20.5176 15.2764C20.5852 15.901 20.6523 16.6906 20.6279 17.208C20.6013 17.8599 20.5101 18.3339 20.3779 18.7139C20.2572 19.1106 20.0418 19.5101 19.7461 19.8232C18.1919 21.257 16.3581 20.8049 14.7803 20.8955C14.4591 20.8941 14.1385 20.892 13.8174 20.8906C13.5192 20.8893 13.221 20.8887 12.9229 20.8887C12.3536 20.8887 11.7841 20.8901 11.2148 20.8936C10.8965 20.9057 10.5929 20.9202 10.3105 20.9336C10.2988 20.9341 10.287 20.935 10.2754 20.9355C9.86443 20.9551 9.49763 20.9727 9.19434 20.9766C8.46151 20.9863 7.62495 20.9498 6.98926 20.8721C6.88616 20.8597 6.78813 20.8466 6.69629 20.833C6.18838 20.7755 5.65689 20.6844 5.13574 20.4355C5.1035 20.414 5.07171 20.3915 5.04004 20.3682C4.82709 20.2109 4.58883 20.0232 4.35449 19.7471C4.15219 19.5097 3.94819 19.1897 3.81738 18.7812C3.69314 18.3992 3.63343 17.9526 3.62988 17.4502C3.62872 17.1246 3.66334 16.9656 3.68945 16.832C3.69732 16.7939 3.7053 16.7575 3.71191 16.7207C3.73454 16.5948 3.72655 16.4608 3.71875 16.3037C3.70867 16.0997 3.69917 15.8526 3.76172 15.5381C3.96456 14.539 3.96614 14.0918 3.96094 13.752C3.96074 13.7322 3.96009 13.7126 3.95996 13.6934C3.95929 13.6163 3.96007 13.5431 3.96387 13.4697C3.97927 13.1724 4.05375 12.7556 4.12402 12.4424C4.16209 12.2727 4.1932 11.9828 4.21484 11.6934C4.22512 11.5573 4.23321 11.4244 4.23926 11.3018C4.2464 11.1562 4.27122 10.9594 4.30176 10.7285C4.33347 10.4896 4.37138 10.2115 4.40527 9.91113C4.49138 9.15131 4.57847 8.73293 4.6709 8.39355C4.6976 8.29674 4.72485 8.20564 4.75586 8.11426C4.85212 7.82898 5.01762 7.45989 5.28418 7.13184C5.37139 7.02374 5.46741 6.92105 5.56836 6.82812C5.83197 6.58267 6.14037 6.40478 6.38965 6.29395C7.30591 5.96046 8.14465 5.9851 8.9541 5.97559C8.95983 5.73375 8.9683 5.49184 8.97852 5.25C8.99657 4.69155 9.16309 4.14052 9.44824 3.67188C9.45472 3.65921 9.46092 3.64577 9.46777 3.63281C9.59828 3.37862 9.81324 3.0906 9.98438 2.94727C10.1998 2.76337 10.3666 2.66776 10.5039 2.5957C11.0685 2.23669 11.7359 2.06393 12.3838 2.08691ZM12.3701 2.85449C12.3009 2.85765 12.2229 2.87143 12.1475 2.88867C12.0344 2.91413 11.9275 2.94804 11.8496 2.95703C11.8205 2.96032 11.792 2.95129 11.7637 2.94336C11.7619 2.94287 11.7596 2.94288 11.7578 2.94238C11.5751 3.00366 11.4014 3.08769 11.2422 3.19141C11.2298 3.20272 11.2173 3.21415 11.2051 3.22559C11.1452 3.28165 11.091 3.34034 11.0654 3.38965C11.0371 3.44284 10.9404 3.53498 10.8525 3.64258C10.7947 3.71273 10.7402 3.789 10.7041 3.85645C10.683 3.89582 10.645 3.91893 10.6064 3.94434C10.5708 3.96779 10.5345 3.99404 10.5127 4.03418C10.5018 4.05444 10.4931 4.07945 10.4854 4.10547C10.4786 4.12825 10.4718 4.15281 10.4629 4.17676C10.4543 4.19929 10.4215 4.24056 10.3828 4.29688C10.3589 4.33163 10.333 4.37276 10.3086 4.41699C10.2679 4.54426 10.2386 4.67491 10.2207 4.80566C10.2285 4.83489 10.2417 4.86099 10.2607 4.88281C10.2745 4.89858 10.2917 4.91355 10.3096 4.92773C10.3339 4.94687 10.3595 4.9657 10.3789 4.98926C10.394 5.00775 10.399 5.02785 10.3906 5.04004C10.3867 5.04569 10.3801 5.05007 10.374 5.05371C10.3671 5.05782 10.3609 5.06125 10.3604 5.06641C10.3601 5.07019 10.364 5.07483 10.3691 5.08008C10.3775 5.08859 10.3883 5.09997 10.3877 5.11523C10.386 5.15734 10.3833 5.20276 10.3809 5.25C10.38 5.27273 10.3789 5.29565 10.3779 5.31836C10.3738 5.4149 10.3696 5.50976 10.373 5.58496C10.3769 5.6691 10.36 5.78909 10.3428 5.90918C10.3307 5.99298 10.3184 6.07739 10.3135 6.14941C10.3123 6.1668 10.3132 6.18445 10.3135 6.20215C10.4756 6.27867 10.5638 6.36669 10.5645 6.45703C10.5635 6.56077 10.4459 6.6583 10.2354 6.74219C10.2351 6.82054 10.2347 6.89931 10.2334 6.97754C10.2359 6.98064 10.2386 6.9841 10.2412 6.9873C10.3009 7.06036 10.3827 7.16034 10.334 7.30078C10.3216 7.3363 10.2988 7.35872 10.2783 7.37891C10.2582 7.3987 10.2402 7.41656 10.2363 7.44238C10.232 7.47186 10.2444 7.507 10.2578 7.54492C10.2767 7.59823 10.2978 7.65802 10.2783 7.71777C10.277 7.72184 10.2759 7.72688 10.2744 7.73145C10.2604 7.77479 10.2389 7.83856 10.1973 7.90234C10.1861 8.09197 10.1734 8.28205 10.1592 8.47168C10.1354 8.78773 10.1081 9.1039 10.0811 9.41992C10.0677 9.57367 10.0109 9.72134 9.91992 9.83008C9.82887 9.9387 9.71185 9.99985 9.59082 10C9.46966 9.99998 9.35189 9.93882 9.26074 9.83008C9.1698 9.72135 9.11293 9.57362 9.09961 9.41992C9.07815 9.16934 9.05692 8.91858 9.03711 8.66797C9.0346 8.65485 9.03157 8.64105 9.0293 8.62793C9.01229 8.53031 8.97844 8.43929 8.94434 8.34863C8.93654 8.3279 8.92849 8.30696 8.9209 8.28613C8.86293 8.12679 8.88639 7.81926 8.89941 7.65039C8.89962 7.64748 8.90019 7.64452 8.90039 7.6416C8.90346 7.60166 8.9044 7.56376 8.90527 7.51953C8.90736 7.41357 8.91026 7.26944 8.94727 6.9707C8.94721 6.96712 8.94634 6.96355 8.94629 6.95996C8.15211 7.00034 7.33588 7.05182 6.73633 7.33008C6.56474 7.41083 6.41427 7.51088 6.2793 7.63477C5.83189 8.03081 5.63416 8.70692 5.48828 9.44141C5.35769 10.1098 5.2682 10.8139 5.17188 11.5176C5.16186 11.5918 5.1525 11.662 5.14258 11.7354C5.1407 11.76 5.13864 11.7856 5.13672 11.8105C5.0931 12.3831 5.04736 12.9481 5.00586 13.3496C4.98736 13.5285 4.96578 13.6817 4.94336 13.8174C4.92219 13.946 4.90074 14.0543 4.88086 14.1582C4.85253 14.3059 4.82768 14.4347 4.8125 14.5674C4.80456 14.6369 4.79411 14.7366 4.78223 14.8525C4.73418 15.331 4.64918 16.138 4.58496 16.8525C4.55666 17.1683 4.526 17.5329 4.5332 17.8643C4.53687 18.3427 4.65354 18.7376 4.7666 18.9033C4.82944 19.0013 4.90182 19.0986 4.98438 19.1924C5.14946 19.3816 5.35103 19.5402 5.57227 19.6553C5.88643 19.8199 6.2242 19.9006 6.41699 19.916C6.64977 19.9333 6.84712 19.9697 7.15039 20.0117C7.36054 20.0403 7.62193 20.0701 7.9834 20.0879C8.39909 20.1078 8.69615 20.1273 8.9502 20.1445C9.30675 20.1682 9.57594 20.1845 9.97754 20.1562C10.0882 20.1485 10.1975 20.1409 10.3105 20.1348C10.6485 20.1161 10.9813 20.1067 11.2578 20.1143C11.4252 20.1188 11.6172 20.1174 11.8164 20.1162C12.08 20.1147 12.3572 20.1136 12.6104 20.125C12.8191 20.1344 12.9919 20.1585 13.1445 20.1797C13.1921 20.1863 13.2381 20.1927 13.2822 20.1982C13.4482 20.1979 13.6143 20.197 13.7803 20.1963C13.7922 20.1946 13.8049 20.1933 13.8174 20.1914C13.8332 20.1891 13.8497 20.186 13.8662 20.1836C14.0151 20.1615 14.1972 20.135 14.4209 20.1211C14.777 20.0991 15.0888 20.1104 15.417 20.1201C15.6728 20.1276 15.9389 20.1345 16.2402 20.1182C16.4463 20.1069 16.6784 20.0847 16.9053 20.0557C17.2436 20.0134 17.5649 19.9522 17.7832 19.9141C17.8649 19.9002 17.9376 19.8983 18.0098 19.8945H18.0107C18.0155 19.8943 18.0206 19.8938 18.0254 19.8936C18.4618 19.7664 18.836 19.5594 19.1006 19.2432C19.1488 19.1864 19.1921 19.1273 19.2324 19.0664C19.2531 19.0303 19.2729 18.9933 19.291 18.9561C19.3807 18.7735 19.4323 18.578 19.4443 18.4434C19.4608 18.2997 19.5193 17.9352 19.5156 17.5137C19.5158 17.2383 19.4976 16.9479 19.4717 16.708C19.4565 16.5676 19.4641 16.4317 19.4707 16.293C19.4767 16.1617 19.4818 16.0275 19.4658 15.8818C19.4578 15.8095 19.4441 15.7279 19.4297 15.6455C19.417 15.5722 19.4033 15.4918 19.3916 15.4111C19.3806 15.3344 19.3724 15.1624 19.3604 14.9404C19.3529 14.8035 19.3444 14.649 19.333 14.4834C19.3087 14.2953 19.2837 14.1054 19.2588 13.9131C19.2276 13.6727 19.1968 13.4318 19.166 13.1914C19.1428 13.1028 19.1171 13.0262 19.0879 12.9668C19.0669 12.9242 19.0435 12.8882 19.0195 12.8516C18.987 12.8018 18.9531 12.7504 18.9229 12.6777C18.8992 12.6207 18.8846 12.5513 18.8867 12.5039C18.8878 12.4821 18.8924 12.4648 18.8965 12.4492C18.9012 12.4312 18.9055 12.4144 18.9033 12.3955C18.9016 12.382 18.8951 12.3682 18.8877 12.3516C18.8757 12.3247 18.8599 12.2893 18.8535 12.2344C18.8426 12.1401 18.8324 12.0397 18.8223 11.9365C18.8102 11.8136 18.7996 11.6914 18.7881 11.5674C18.7646 11.3134 18.7411 11.0676 18.7148 10.8721C18.6855 10.6532 18.6662 10.344 18.6396 10.0361C18.6213 9.82236 18.5985 9.61067 18.5703 9.43457C18.5428 9.26202 18.4959 9.08846 18.4443 8.92969C18.3824 8.7381 18.3145 8.57043 18.2715 8.43066C18.2626 8.40184 18.2651 8.36176 18.2666 8.31055C18.2676 8.27407 18.2684 8.23215 18.2637 8.18652C18.1766 8.02541 18.0754 7.8865 17.9531 7.76465C17.947 7.76223 17.9399 7.76023 17.9336 7.75781C17.9159 7.75108 17.8973 7.74426 17.8779 7.7373C17.7374 7.68693 17.5865 7.64101 17.3877 7.50781C17.3294 7.4693 17.2939 7.43278 17.2607 7.39941C17.2284 7.3669 17.1976 7.33679 17.1445 7.31738C17.0837 7.29527 17.0044 7.28804 16.918 7.2832C16.7953 7.27606 16.6544 7.27424 16.5146 7.23633C16.5049 7.23373 16.495 7.23033 16.4844 7.22754C16.3822 7.20052 16.2289 7.16446 16.0713 7.11133C15.8774 7.0928 15.68 7.07916 15.4805 7.06738C15.4348 7.35057 15.487 7.49152 15.5273 7.60156C15.541 7.63877 15.5537 7.6725 15.5605 7.70703C15.5828 7.81924 15.5605 7.97975 15.5303 8.10059C15.5065 8.19653 15.5304 8.38803 15.5605 8.5332C15.5719 8.58814 15.572 8.6626 15.5723 8.75C15.5725 8.84057 15.5731 8.94552 15.5859 9.05762C15.6183 9.34064 15.6339 9.49131 15.6465 9.6123C15.6501 9.6468 15.6528 9.67982 15.6562 9.71191C15.667 9.8133 15.6756 9.93911 15.6846 10.0664C15.6953 10.219 15.7062 10.3743 15.7207 10.4922C15.7054 10.7975 15.6869 11.1029 15.668 11.4082C15.6581 11.5651 15.603 11.7162 15.5117 11.8271C15.4203 11.9381 15.3003 12 15.1768 12C15.0534 11.9998 14.9341 11.9379 14.8428 11.8271C14.7515 11.7162 14.6964 11.5651 14.6865 11.4082C14.6669 11.0922 14.6475 10.776 14.6318 10.46C14.6128 10.0749 14.5996 9.68973 14.5996 9.30469C14.5996 9.03551 14.6021 8.76625 14.6074 8.49707C14.608 8.46936 14.6088 8.44079 14.6094 8.41309C14.579 8.18692 14.5518 7.9608 14.542 7.80176C14.5339 7.67071 14.5496 7.57506 14.5635 7.49316C14.573 7.43674 14.5814 7.38645 14.5801 7.33594C14.5794 7.3088 14.5774 7.27124 14.5752 7.22656C14.5724 7.17016 14.5709 7.10154 14.5684 7.02539C14.2479 7.01417 13.9248 7.00514 13.6016 6.99512C13.1006 6.97961 12.5995 6.96348 12.0986 6.94727C11.6921 6.93393 11.3022 6.87708 11.0146 6.78613C10.7273 6.69508 10.5648 6.57805 10.5645 6.45703C10.5645 6.33589 10.7271 6.21809 11.0146 6.12695C11.3022 6.03601 11.6921 5.97916 12.0986 5.96582C12.5994 5.94961 13.1007 5.93348 13.6016 5.91797C13.7659 5.91294 13.9286 5.90795 14.0908 5.90332C14.126 5.90086 14.1616 5.89868 14.1963 5.89648C14.3617 5.88602 14.5198 5.86863 14.6758 5.84961C14.6951 5.72845 14.7089 5.62506 14.7021 5.5625C14.6915 5.46376 14.6927 5.35617 14.6982 5.25C14.7019 5.18982 14.705 5.13032 14.7061 5.07324C14.7089 4.93815 14.6983 4.81789 14.6641 4.75684C14.623 4.684 14.6161 4.61682 14.5986 4.51562C14.5862 4.44579 14.5682 4.35891 14.5225 4.24902C14.4693 4.1226 14.4334 4.02986 14.4004 3.95117C14.3534 3.84159 14.3114 3.75725 14.2031 3.6748C14.0825 3.58345 13.9587 3.4958 13.8721 3.41309C13.8328 3.37533 13.7823 3.33854 13.7285 3.30273C13.657 3.25506 13.579 3.20941 13.5117 3.16016C13.4567 3.11977 13.4165 3.07334 13.3789 3.0332C13.3671 3.02067 13.3553 3.00802 13.3438 2.99707C13.2924 2.97547 13.2393 2.95606 13.1865 2.93848C13.1769 2.93915 13.1668 2.94038 13.1562 2.94141C13.102 2.94665 13.0364 2.95496 12.9619 2.9502C12.8445 2.94295 12.7485 2.91265 12.6426 2.88672C12.5641 2.86767 12.4799 2.85095 12.3838 2.85352C12.3793 2.85364 12.3747 2.85428 12.3701 2.85449Z" fill="#514024"/>
<path d="M13.6338 11C13.6338 10.4477 14.0815 10 14.6338 10H15.6338C16.1861 10 16.6338 10.4477 16.6338 11V12C16.6338 12.5523 16.1861 13 15.6338 13H14.6338C14.0815 13 13.6338 12.5523 13.6338 12V11Z" fill="#BB9E5B"/>
<path d="M8.13379 10C8.13379 9.44772 8.5815 9 9.13379 9H10.1338C10.6861 9 11.1338 9.44772 11.1338 10V11C11.1338 11.5523 10.6861 12 10.1338 12H9.13379C8.5815 12 8.13379 11.5523 8.13379 11V10Z" fill="#DAC48F"/>
</svg>
