<svg width="24" height="24" viewBox="0 0 24 24" fill="none" xmlns="http://www.w3.org/2000/svg">
<path d="M13.1267 3.94409C13.15 3.951 13.1677 3.9603 13.1833 3.96851C13.2012 3.97791 13.2175 3.98692 13.238 3.98999C13.2527 3.99205 13.2693 3.98955 13.2888 3.98706C13.3204 3.98306 13.3616 3.97847 13.4207 3.98804C13.6409 4.02367 13.9033 4.0771 14.1453 4.13452C14.4192 4.19901 14.6899 4.27301 14.8982 4.32788C15.1437 4.39233 15.4663 4.50888 15.7986 4.64722C16.0253 4.74156 16.2508 4.84443 16.4441 4.93237C16.6311 5.01732 16.8347 5.09899 17.0271 5.18335C17.2548 5.28274 17.4794 5.39183 17.6492 5.50659C17.6838 5.52997 17.7182 5.57142 17.7625 5.62476C17.794 5.66273 17.8306 5.70634 17.8728 5.75269C18.0957 5.88894 18.3137 6.03462 18.5251 6.18823C18.534 6.19147 18.5434 6.19465 18.5525 6.198V6.19897C18.7597 6.27553 19.0514 6.3902 19.3376 6.70288C19.4094 6.78172 19.4433 6.84314 19.4734 6.89819C19.5025 6.95202 19.5296 7.00188 19.5828 7.05737C19.6435 7.12069 19.7268 7.18396 19.8152 7.25366C19.9386 7.35066 20.0787 7.46722 20.1814 7.61108C20.1884 7.62093 20.196 7.63229 20.2039 7.64331C20.2784 7.74784 20.3886 7.90753 20.4724 8.07886C20.8133 8.52142 21.1139 8.99361 21.3699 9.48706C21.7964 10.3099 22.1011 11.1916 22.2664 12.1023C22.3472 12.5456 22.3409 12.9794 22.2703 13.3005C22.1992 13.6191 22.0771 13.7898 21.9568 13.7888C21.8351 13.7887 21.7221 13.6231 21.613 13.3445C21.5037 13.0616 21.4018 12.6943 21.3054 12.3054C21.1497 11.6729 20.9156 11.0582 20.6189 10.4812C20.6021 10.4517 20.5851 10.4219 20.5681 10.3923C20.4411 10.1723 20.2972 9.98165 20.1492 9.80151C20.115 9.75987 20.0807 9.718 20.0457 9.67651C19.7877 9.35871 19.3319 8.72507 19.0398 8.40601C19.0346 8.40016 19.0294 8.39427 19.0242 8.38843C18.956 8.31143 18.8888 8.24077 18.8093 8.16089C18.6147 7.97126 18.3625 7.70689 17.7615 7.22437C17.5784 7.09504 17.3908 6.97152 17.199 6.85425C15.2316 5.65039 12.8717 5.14613 10.4832 5.09155C10.3628 5.10207 10.2439 5.1144 10.1267 5.12671C10.0951 5.13106 10.0623 5.1348 10.03 5.1394C9.41481 5.2242 8.64917 5.38224 8.16187 5.48901C7.56729 5.61441 7.14245 5.73675 6.82788 5.83374C4.98043 6.47137 3.2672 7.76779 2.76929 9.64429C2.60925 10.2204 2.56165 10.8312 2.61597 11.4343C2.66527 11.9892 2.79984 12.5457 2.9978 13.072C3.12365 13.377 3.26821 13.6592 3.41284 13.9089C3.61811 14.2637 3.82546 14.5599 4.00171 14.8054C4.42109 15.3963 4.96149 16.0204 5.40796 16.4451C5.48028 16.5147 5.5505 16.579 5.61597 16.6384C5.99041 16.9514 6.38728 17.2386 6.80444 17.4978C6.82904 17.5194 6.85426 17.5411 6.87964 17.5632C7.19811 17.8381 7.64792 18.1086 8.39331 18.4304C8.4739 18.4648 8.55868 18.4996 8.64722 18.5349C8.92661 18.6464 9.23126 18.7637 9.57593 18.8884C9.87928 18.9975 10.0167 19.067 10.1423 19.1287C10.1783 19.1464 10.2117 19.1632 10.2458 19.1785C10.3632 19.231 10.4924 19.2514 10.6531 19.2751C10.8555 19.3039 11.1006 19.3371 11.408 19.4324C12.3924 19.7297 12.8558 19.6557 13.1775 19.6062C13.2737 19.5899 13.3606 19.5724 13.4441 19.5583C13.7239 19.5152 14.112 19.4589 14.3865 19.3728C14.6106 19.3154 14.988 19.0501 15.1619 18.7673C15.2312 18.6634 15.3273 18.5245 15.4138 18.3396C15.4954 18.1661 15.5685 17.9506 15.6082 17.7068C15.6134 17.6763 15.619 17.6447 15.6248 17.614C15.7963 16.7551 16.0719 16.3316 16.2869 16.0134C16.3511 15.9227 16.4151 15.8408 16.4822 15.7615C16.6937 15.5096 17.0065 15.2289 17.3767 15.0203C17.8173 14.7653 18.3327 14.6324 18.7253 14.5964C19.0579 14.58 19.3879 14.6137 19.7039 14.6882C20.193 14.8089 20.6992 14.8336 21.0222 14.6804C21.2625 14.5723 21.4326 14.3964 21.5798 14.1765C21.7235 13.9635 21.8315 13.7886 21.9568 13.7888C22.0755 13.7889 22.2189 13.9616 22.2292 14.3337C22.2506 14.6931 22.0005 15.289 21.4675 15.5544C20.7831 15.9002 20.0883 15.8324 19.4792 15.7195C19.2257 15.6706 18.9705 15.66 18.7234 15.6892C17.848 15.7838 17.1106 16.4251 16.7654 17.2683C16.6805 17.4701 16.6155 17.6839 16.5701 17.9031C16.4589 18.4465 16.228 19.0085 15.824 19.4597C15.7609 19.5304 15.6947 19.5978 15.6248 19.6619C15.0735 20.2228 14.3207 20.4602 13.8279 20.5388C13.415 20.6056 13.1255 20.5886 12.8738 20.5701C12.7075 20.5564 12.5525 20.5378 12.406 20.5261C12.3257 20.5197 12.2119 20.5099 12.0837 20.4958C11.5454 20.4424 10.659 20.2658 9.89624 19.991C9.55717 19.8713 9.17799 19.7128 8.81226 19.5486C8.6492 19.475 8.48612 19.3994 8.33081 19.3269C8.00647 19.1758 7.73996 19.0369 7.573 18.9636C7.13692 18.7734 6.66874 18.4922 6.2771 18.2195C5.89806 17.9575 5.59011 17.7076 5.39819 17.5808C5.17135 17.4307 4.99772 17.272 4.75464 17.0271C4.5887 16.8585 4.38173 16.6414 4.11987 16.3455C3.81289 15.9966 3.62964 15.7298 3.47632 15.4968C3.26596 15.1717 3.11528 14.9174 2.87476 14.5525C2.60684 14.1444 2.37744 13.6838 2.24976 13.2976C2.19088 13.1215 2.12603 12.9245 2.06616 12.7097C1.98756 12.4291 1.92337 12.1272 1.89526 11.8474C1.87223 11.6191 1.87967 11.4219 1.89233 11.2537C1.89628 11.2012 1.90077 11.1507 1.90503 11.1023C1.89992 10.9192 1.90252 10.7342 1.91382 10.5515C1.91192 10.5218 1.90969 10.4904 1.90796 10.4578C1.89948 10.2922 1.8952 10.0859 1.92944 9.83472C1.98494 9.43683 2.10294 9.09908 2.25757 8.7605C2.37775 8.49942 2.52401 8.23037 2.69995 7.94116C2.82086 7.74203 2.96964 7.51794 3.12866 7.3103C3.37163 6.99206 3.63249 6.71969 3.84546 6.54565C3.92121 6.48391 3.99632 6.44058 4.07104 6.39917H4.07202C4.07703 6.39639 4.08264 6.39314 4.08765 6.39038C4.59155 5.97035 5.12297 5.6334 5.70581 5.33765C5.75543 5.30953 5.8012 5.28389 5.84937 5.25757C6.08233 5.1297 6.32396 5.01265 6.4812 4.92554C6.6348 4.83618 7.08214 4.65654 7.54565 4.50952C7.84273 4.41338 8.18742 4.31819 8.43726 4.24878C8.5868 4.20722 8.73676 4.19256 8.89233 4.17944C9.03663 4.16739 9.19248 4.15515 9.35034 4.12573C9.42698 4.11137 9.51009 4.09218 9.59937 4.07202C9.67806 4.05425 9.76217 4.03525 9.85132 4.01929C9.93442 4.00448 10.122 3.98852 10.3689 3.97241C10.3821 3.97155 10.3964 3.97034 10.4099 3.96948L10.4666 3.96655C10.6078 3.97273 10.7638 3.98157 10.9246 3.99097C11.3839 3.99197 11.8588 4.01013 12.3298 4.04956C12.4291 4.04602 12.5155 4.03787 12.5847 4.02319C12.6343 4.01267 12.6774 3.99859 12.7214 3.98413C12.7809 3.9644 12.8447 3.94388 12.9314 3.93335C12.9988 3.92512 13.0767 3.92932 13.1267 3.94409Z" fill="#514024"/>
<circle cx="14.5" cy="10" r="1.5" fill="#DAC48F"/>
<circle cx="8.5" cy="9" r="1.5" fill="#BB9E5B"/>
<circle cx="9.5" cy="14" r="1.5" fill="#DAC48F"/>
</svg>
