<svg width="40" height="40" viewBox="0 0 40 40" fill="none" xmlns="http://www.w3.org/2000/svg">
<path d="M18.7422 39.6562C18.9553 39.6789 19.1698 39.6959 19.3858 39.7051C19.1698 39.6959 18.9553 39.6789 18.7422 39.6562ZM19.8204 1.35742C23.3708 1.35742 26.2491 4.23549 26.2491 7.78613V21.9492C26.2491 22.0501 26.2924 22.1471 26.3672 22.2148L26.4395 22.2803C29.2856 24.8742 30.3658 28.9189 29.1475 32.6123L29.1075 32.7334C27.7426 36.6974 24.0125 39.3584 19.8204 39.3584C15.6281 39.3583 11.8978 36.6974 10.5333 32.7334C9.25077 29.0078 10.3235 24.9026 13.2002 22.2803L13.2735 22.2139C13.3484 22.1462 13.3917 22.0502 13.3917 21.9492V7.78613C13.3917 4.2712 16.2126 1.41535 19.7139 1.3584L19.7129 1.35742H19.8204ZM19.8204 3.35742C17.3746 3.35757 15.3917 5.34032 15.3917 7.78613V22.5859C15.3915 22.9582 15.2129 23.2401 14.96 23.4102L14.9278 23.4336L14.8399 23.5059L14.837 23.5078C13.6245 24.5101 12.7422 25.8548 12.3057 27.3662C11.8692 28.8777 11.8991 30.4859 12.3907 31.9805V31.9834L12.4239 32.0801L12.4249 32.082C12.818 33.2243 13.4706 34.2605 14.3311 35.1084C15.1915 35.9561 16.237 36.5935 17.3848 36.9697C18.5326 37.3458 19.7521 37.4503 20.9473 37.2764C22.1426 37.1023 23.2815 36.6537 24.2745 35.9658C25.2674 35.2779 26.088 34.3694 26.6709 33.3115C27.2539 32.2534 27.5837 31.0742 27.6348 29.8672C27.6859 28.6603 27.4573 27.458 26.9659 26.3545C26.4744 25.2511 25.7339 24.2762 24.8028 23.5068L24.7999 23.5049L24.7129 23.4336C24.7025 23.4251 24.6911 23.4174 24.6797 23.4102C24.4661 23.2662 24.3065 23.0423 24.2618 22.7529L24.25 22.625L24.2491 22.5811V7.78613C24.2491 5.34022 22.266 3.35742 19.8204 3.35742ZM19.9034 36.998C19.8242 36.9989 19.7451 36.9997 19.6661 36.998C19.7451 36.9997 19.8242 36.9989 19.9034 36.998ZM19.4805 36.9902C19.4069 36.9869 19.3333 36.9831 19.2598 36.9775C19.3333 36.9831 19.4069 36.9869 19.4805 36.9902ZM19.087 36.9629C19.0001 36.9543 18.9137 36.9432 18.8272 36.9316C18.9137 36.9433 19.0001 36.9543 19.087 36.9629ZM21.2686 36.8594L20.8965 36.9229C21.0312 36.9032 21.1649 36.8794 21.2979 36.8525C21.2881 36.8545 21.2784 36.8574 21.2686 36.8594ZM18.6924 36.9131C18.6085 36.9003 18.525 36.8848 18.4415 36.8691C18.525 36.8849 18.6085 36.9002 18.6924 36.9131ZM18.2745 36.8379C18.1851 36.819 18.0966 36.7966 18.0079 36.7744C18.0966 36.7966 18.1851 36.819 18.2745 36.8379ZM21.6836 36.7627C21.6014 36.7839 21.5186 36.8029 21.4356 36.8213C21.5186 36.8029 21.6014 36.7839 21.6836 36.7627ZM17.4961 36.6299C17.6263 36.6726 17.7577 36.7107 17.8897 36.7461C17.8793 36.7433 17.8688 36.7411 17.8584 36.7383L17.4961 36.6299ZM22.0674 36.6523C22.001 36.6733 21.9342 36.6928 21.8672 36.7119C21.9342 36.6928 22.001 36.6733 22.0674 36.6523ZM22.4737 36.5107C22.3989 36.5392 22.3238 36.5668 22.2481 36.5928C22.3238 36.5667 22.3989 36.5392 22.4737 36.5107ZM22.8858 36.3398C22.7966 36.38 22.7069 36.4185 22.6163 36.4551C22.7069 36.4185 22.7967 36.38 22.8858 36.3398ZM23.71 35.9082C23.4726 36.0531 23.2269 36.1827 22.9756 36.2998C23.0971 36.2431 23.2176 36.1843 23.336 36.1211L23.71 35.9082ZM15.5752 35.6768H15.5762H15.5752ZM24.376 35.4502L24.0713 35.6729C24.1871 35.5926 24.3004 35.5083 24.4112 35.4219C24.3993 35.4311 24.3879 35.441 24.376 35.4502ZM24.7051 35.1787C24.6305 35.2433 24.5538 35.3055 24.4766 35.3672C24.5539 35.3055 24.6305 35.2433 24.7051 35.1787ZM14.5821 34.8535H14.5811H14.5821ZM25.0108 34.8984C24.9539 34.9536 24.8956 35.0072 24.837 35.0605C24.8957 35.0072 24.9539 34.9535 25.0108 34.8984ZM25.2881 34.6143C25.2377 34.6686 25.1869 34.7225 25.1348 34.7754C25.1869 34.7226 25.2377 34.6686 25.2881 34.6143ZM25.5723 34.291C25.5211 34.353 25.4692 34.4143 25.4161 34.4746C25.4693 34.4143 25.5211 34.353 25.5723 34.291ZM25.8497 33.9346C25.7913 34.0146 25.7314 34.0933 25.67 34.1709C25.7314 34.0933 25.7913 34.0146 25.8497 33.9346ZM26.085 33.5918C26.0286 33.6789 25.9711 33.765 25.9112 33.8496C25.9711 33.7651 26.0286 33.6789 26.085 33.5918ZM26.5508 32.7637C26.4962 32.8776 26.4385 32.9902 26.378 33.1016C26.4385 32.9902 26.4962 32.8776 26.5508 32.7637ZM26.7061 32.4141C26.6783 32.4806 26.649 32.5465 26.6192 32.6123C26.649 32.5465 26.6783 32.4806 26.7061 32.4141ZM29.8497 31.2773C29.7862 31.642 29.7022 32.0054 29.5977 32.3662C29.6674 32.1257 29.728 31.8841 29.7793 31.6416L29.8497 31.2773ZM26.8633 32.0049C26.8355 32.0843 26.805 32.1627 26.7745 32.2412C26.805 32.1627 26.8355 32.0843 26.8633 32.0049ZM26.9922 31.6006C26.9663 31.6906 26.9386 31.7801 26.9092 31.8691C26.9385 31.7801 26.9663 31.6906 26.9922 31.6006ZM27.0997 31.1807C27.0762 31.2845 27.0504 31.3876 27.0225 31.4902C27.0504 31.3876 27.0762 31.2845 27.0997 31.1807ZM27.1905 30.7178C27.1693 30.8501 27.1436 30.9815 27.1153 31.1123C27.1435 30.9815 27.1693 30.8501 27.1905 30.7178ZM29.9493 30.5469H29.9502H29.9493ZM27.2852 29.4746L27.2784 29.8525C27.2842 29.7145 27.2851 29.5762 27.2833 29.4385C27.2834 29.4505 27.2851 29.4626 27.2852 29.4746ZM27.2676 29.042C27.274 29.1385 27.2777 29.2352 27.2803 29.332C27.2777 29.2352 27.274 29.1385 27.2676 29.042ZM12.3672 29.1162H12.3682H12.3672ZM27.2276 28.6289C27.2379 28.7131 27.2465 28.7973 27.254 28.8818C27.2465 28.7973 27.2379 28.713 27.2276 28.6289ZM27.167 28.2236C27.1819 28.3067 27.1951 28.3901 27.2071 28.4736C27.1951 28.3901 27.1819 28.3067 27.167 28.2236ZM27.0743 27.7812C27.0976 27.8779 27.1192 27.9748 27.1387 28.0723C27.1192 27.9748 27.0976 27.8779 27.0743 27.7812ZM13.4307 25.6777C13.095 26.2336 12.8317 26.834 12.6495 27.4648H12.6485C12.7006 27.2846 12.7591 27.1066 12.8243 26.9316C12.922 26.6691 13.0342 26.4128 13.1602 26.1641C13.2442 25.9981 13.3347 25.8357 13.4307 25.6768V25.6777ZM26.959 27.3594C26.9923 27.4685 27.0236 27.5781 27.0518 27.6885C27.0236 27.5781 26.9923 27.4685 26.959 27.3594ZM29.1983 25.5762V25.5771V25.5762ZM14.4473 24.3535C14.1885 24.6218 13.9515 24.9093 13.7364 25.2119V25.2109C13.8438 25.0598 13.9567 24.9124 14.0752 24.7695C14.1939 24.6265 14.3179 24.4876 14.4473 24.3535ZM24.5752 23.7822C24.7765 23.9485 24.9675 24.126 25.1495 24.3115C25.0678 24.2282 24.9851 24.1459 24.8995 24.0664L24.5752 23.7822ZM15.0645 23.7822H15.0655H15.0645ZM15.7491 22.5859C15.7491 22.6764 15.7379 22.7627 15.7227 22.8457C15.7274 22.8199 15.734 22.7941 15.7374 22.7676L15.7491 22.5859ZM23.7657 6.78027C23.7751 6.81748 23.7836 6.85497 23.792 6.89258C23.7836 6.85497 23.7751 6.81748 23.7657 6.78027ZM23.7159 6.59961C23.7239 6.6261 23.7308 6.65297 23.7383 6.67969C23.7308 6.65296 23.7239 6.62611 23.7159 6.59961ZM23.4903 6.02148C23.5086 6.05951 23.5259 6.09805 23.543 6.13672C23.5259 6.09805 23.5086 6.05951 23.4903 6.02148ZM26.3018 5.76758V5.76855V5.76758ZM23.4083 5.86133C23.4302 5.9022 23.4511 5.94366 23.4717 5.98535C23.4511 5.94365 23.4302 5.9022 23.4083 5.86133ZM23.3262 5.7168C23.3364 5.734 23.3466 5.75119 23.3565 5.76855C23.3466 5.75119 23.3364 5.734 23.3262 5.7168ZM23.2129 5.53613C23.2301 5.562 23.2471 5.58798 23.2637 5.61426C23.2471 5.58798 23.2301 5.562 23.2129 5.53613ZM23.1094 5.38672C23.1254 5.40859 23.1407 5.43092 23.1563 5.45312C23.1407 5.43092 23.1254 5.40859 23.1094 5.38672ZM22.9864 5.22656C23.0053 5.25 23.0236 5.27399 23.042 5.29785C23.0236 5.27399 23.0053 5.25 22.9864 5.22656ZM22.8536 5.07129C22.8824 5.10343 22.9108 5.13589 22.9385 5.16895C22.9108 5.13589 22.8824 5.10343 22.8536 5.07129ZM22.7325 4.94238C22.7566 4.9671 22.7803 4.99225 22.8038 5.01758C22.7802 4.99225 22.7566 4.9671 22.7325 4.94238ZM22.5967 4.80859C22.6211 4.83137 22.6451 4.85456 22.669 4.87793C22.6451 4.85456 22.6211 4.83137 22.5967 4.80859ZM22.4571 4.68457C22.4771 4.70163 22.4969 4.71889 22.5167 4.73633C22.4969 4.7189 22.4771 4.70162 22.4571 4.68457ZM22.3135 4.56836C22.3348 4.58486 22.3561 4.60126 22.377 4.61816C22.3561 4.60126 22.3348 4.58485 22.3135 4.56836ZM22.1543 4.45117C22.1742 4.46513 22.1943 4.47886 22.2139 4.49316C22.1943 4.47886 22.1742 4.46513 22.1543 4.45117ZM21.9913 4.3418C22.0174 4.3583 22.0437 4.37452 22.0694 4.3916C22.0437 4.37453 22.0174 4.3583 21.9913 4.3418ZM21.7901 4.22266C21.8275 4.24338 21.8647 4.26428 21.9014 4.28613C21.8647 4.26428 21.8275 4.24338 21.7901 4.22266ZM21.6221 4.13477C21.6658 4.15635 21.7093 4.17809 21.752 4.20117C21.7093 4.17809 21.6658 4.15634 21.6221 4.13477ZM21.4688 4.0625C21.5019 4.07716 21.5348 4.09191 21.5674 4.10742C21.5348 4.09191 21.5019 4.07716 21.4688 4.0625ZM21.2813 3.98535C21.3159 3.99865 21.3507 4.01118 21.3848 4.02539C21.3507 4.01118 21.3159 3.99865 21.2813 3.98535ZM21.1143 3.92578C21.144 3.93574 21.1738 3.94543 21.2032 3.95605C21.1738 3.94544 21.144 3.93574 21.1143 3.92578ZM20.9278 3.86816C20.9558 3.87607 20.984 3.88312 21.0118 3.8916C20.984 3.88312 20.9558 3.87607 20.9278 3.86816ZM20.6446 3.79785C20.7046 3.8102 20.7642 3.8239 20.8233 3.83887C20.7642 3.82391 20.7046 3.8102 20.6446 3.79785ZM20.46 3.76465C20.3864 3.75304 20.3122 3.74296 20.2374 3.73535L20.0303 3.71973C20.1756 3.72711 20.3191 3.74242 20.46 3.76465ZM23.8809 2.34863V2.34766V2.34863ZM15.9727 2.19531V2.19629V2.19531ZM18.0372 1.23633V1.2373V1.23633ZM20.46 3.76465C20.5196 3.77406 20.579 3.78393 20.6377 3.7959C20.579 3.78393 20.5196 3.77406 20.46 3.76465Z" fill="#746449"/>
<path d="M19.8207 24.7859C17.1973 24.7859 15.0706 26.9126 15.0706 29.5361C15.0706 32.1595 17.1973 34.2863 19.8207 34.2863C22.4442 34.2863 24.5709 32.1595 24.5709 29.5361C24.5709 26.9126 22.4442 24.7859 19.8207 24.7859Z" fill="#A99B7E"/>
<path d="M19.8206 11.2146C20.1717 11.2146 20.5092 11.3507 20.7621 11.5943C21.015 11.8379 21.1637 12.17 21.1769 12.5209L21.1778 12.5718V26.1438C21.1781 26.4995 21.0388 26.8412 20.7897 27.0953C20.5406 27.3493 20.2017 27.4954 19.846 27.5021C19.4903 27.5088 19.1462 27.3755 18.8878 27.131C18.6293 26.8864 18.4773 26.5502 18.4643 26.1947L18.4634 26.1438V12.5718C18.4634 12.2118 18.6064 11.8666 18.8609 11.6121C19.1154 11.3576 19.4606 11.2146 19.8206 11.2146Z" fill="#A99B7E"/>
</svg>
