<svg width="24" height="24" viewBox="0 0 24 24" fill="none" xmlns="http://www.w3.org/2000/svg">
<g clip-path="url(#clip0_56_1348)">
<path d="M8.5001 5.68385C7.94842 5.70318 7.51571 6.1665 7.53474 6.71827C7.55382 7.27001 8.01748 7.70238 8.56917 7.68365L15.8535 7.49786L5.6618 17.5167L5.59275 17.5927C5.27295 17.9853 5.29614 18.565 5.66182 18.9309C6.02775 19.2969 6.60732 19.3198 7.00008 19L7.07604 18.931L17.3478 8.832L17.2719 16.0649L17.2802 16.1671C17.3478 16.6691 17.7864 17.0481 18.3035 17.0317C18.821 17.0149 19.2341 16.6079 19.2689 16.1022L19.2703 16L19.2703 6.38198C19.2617 6.11651 19.1473 5.86528 18.9533 5.68384C18.7595 5.50274 18.5017 5.40548 18.2365 5.41452L8.5001 5.68385Z" fill="#514024"/>
</g>
<defs>
<clipPath id="clip0_56_1348">
<rect width="24" height="24" fill="white"/>
</clipPath>
</defs>
</svg>
